<svg xmlns="http://www.w3.org/2000/svg" xmlns:xlink="http://www.w3.org/1999/xlink" width="800" zoomAndPan="magnify" viewBox="0 0 600 74.999997" height="100" preserveAspectRatio="xMidYMid meet" version="1.2"><defs/><g id="bae656af09"><g style="fill:#959085;fill-opacity:1;"><g transform="translate(0.000012, 54.650808)"><path style="stroke:none" d="M 3.28125 -36.734375 C 3.394531 -36.804688 3.582031 -36.898438 3.84375 -37.015625 C 4.113281 -37.140625 4.425781 -37.273438 4.78125 -37.421875 C 5.144531 -37.566406 5.53125 -37.726562 5.9375 -37.90625 C 6.351562 -38.082031 6.773438 -38.253906 7.203125 -38.421875 L 10.390625 -39.6875 C 10.628906 -39.800781 10.851562 -39.859375 11.0625 -39.859375 C 11.207031 -39.859375 11.363281 -39.816406 11.53125 -39.734375 C 11.707031 -39.648438 11.910156 -39.5 12.140625 -39.28125 L 18.5 -26.921875 L 18.671875 -27.328125 L 21.40625 -32.375 C 21.75 -33 22.09375 -33.613281 22.4375 -34.21875 C 22.78125 -34.832031 23.082031 -35.378906 23.34375 -35.859375 C 23.613281 -36.335938 23.835938 -36.722656 24.015625 -37.015625 C 24.203125 -37.304688 24.316406 -37.453125 24.359375 -37.453125 L 33.8125 -39.828125 C 34.03125 -39.878906 34.210938 -39.90625 34.359375 -39.90625 C 34.785156 -39.90625 35 -39.710938 35 -39.328125 C 34.976562 -39.234375 34.957031 -39.109375 34.9375 -38.953125 C 34.925781 -38.796875 34.875 -38.628906 34.78125 -38.453125 L 26.671875 -23.421875 C 26.265625 -22.660156 25.851562 -21.898438 25.4375 -21.140625 C 25.03125 -20.390625 24.628906 -19.679688 24.234375 -19.015625 C 23.847656 -18.347656 23.503906 -17.738281 23.203125 -17.1875 C 22.898438 -16.632812 22.660156 -16.179688 22.484375 -15.828125 L 22.28125 -14.921875 L 20.734375 -4.578125 C 20.679688 -4.265625 20.632812 -4.003906 20.59375 -3.796875 C 20.5625 -3.597656 20.515625 -3.429688 20.453125 -3.296875 C 20.390625 -3.171875 20.304688 -3.0625 20.203125 -2.96875 C 20.097656 -2.882812 19.957031 -2.796875 19.78125 -2.703125 L 11.9375 1.40625 C 11.644531 1.550781 11.335938 1.671875 11.015625 1.765625 C 10.691406 1.859375 10.382812 1.90625 10.09375 1.90625 C 9.78125 1.90625 9.515625 1.832031 9.296875 1.6875 C 9.078125 1.550781 8.96875 1.328125 8.96875 1.015625 L 8.96875 0.90625 C 9.039062 -0.132812 9.171875 -1.347656 9.359375 -2.734375 C 9.554688 -4.128906 9.765625 -5.488281 9.984375 -6.8125 L 11.53125 -17.046875 C 11.238281 -17.671875 10.851562 -18.5 10.375 -19.53125 C 9.894531 -20.5625 9.378906 -21.671875 8.828125 -22.859375 C 8.273438 -24.054688 7.695312 -25.289062 7.09375 -26.5625 C 6.5 -27.832031 5.941406 -29.03125 5.421875 -30.15625 C 4.898438 -31.289062 4.429688 -32.289062 4.015625 -33.15625 C 3.597656 -34.019531 3.289062 -34.648438 3.09375 -35.046875 C 3 -35.328125 2.953125 -35.613281 2.953125 -35.90625 C 2.953125 -36.070312 2.972656 -36.234375 3.015625 -36.390625 C 3.066406 -36.546875 3.15625 -36.660156 3.28125 -36.734375 Z M 3.28125 -36.734375 "/></g></g><g style="fill:#959085;fill-opacity:1;"><g transform="translate(26.810189, 54.650808)"><path style="stroke:none" d="M 18.484375 1.4375 C 15.890625 1.4375 13.613281 1.007812 11.65625 0.15625 C 9.695312 -0.6875 8.054688 -1.8125 6.734375 -3.21875 C 5.410156 -4.625 4.414062 -6.238281 3.75 -8.0625 C 3.09375 -9.894531 2.765625 -11.796875 2.765625 -13.765625 C 2.765625 -15.734375 3.082031 -17.601562 3.71875 -19.375 C 4.363281 -21.144531 5.265625 -22.734375 6.421875 -24.140625 C 7.578125 -25.546875 8.960938 -26.722656 10.578125 -27.671875 C 12.203125 -28.617188 13.988281 -29.257812 15.9375 -29.59375 C 16.226562 -29.613281 16.375 -29.675781 16.375 -29.78125 C 16.375 -29.988281 16.351562 -30.175781 16.3125 -30.34375 C 16.269531 -30.519531 16.25 -30.675781 16.25 -30.8125 C 16.25 -31.007812 16.285156 -31.144531 16.359375 -31.21875 C 16.429688 -31.289062 16.515625 -31.328125 16.609375 -31.328125 C 20.117188 -31.328125 23.101562 -30.925781 25.5625 -30.125 C 28.03125 -29.332031 30.035156 -28.242188 31.578125 -26.859375 C 33.117188 -25.484375 34.238281 -23.859375 34.9375 -21.984375 C 35.644531 -20.109375 36 -18.09375 36 -15.9375 C 36 -13.195312 35.535156 -10.75 34.609375 -8.59375 C 33.691406 -6.445312 32.4375 -4.628906 30.84375 -3.140625 C 29.257812 -1.648438 27.40625 -0.515625 25.28125 0.265625 C 23.15625 1.046875 20.890625 1.4375 18.484375 1.4375 Z M 13.375 -14.0625 C 13.375 -13.070312 13.476562 -12.085938 13.6875 -11.109375 C 13.90625 -10.140625 14.253906 -9.257812 14.734375 -8.46875 C 15.222656 -7.675781 15.863281 -7.035156 16.65625 -6.546875 C 17.445312 -6.054688 18.429688 -5.8125 19.609375 -5.8125 C 20.453125 -5.851562 21.191406 -6.039062 21.828125 -6.375 C 22.460938 -6.71875 23.007812 -7.160156 23.46875 -7.703125 C 23.925781 -8.242188 24.304688 -8.851562 24.609375 -9.53125 C 24.921875 -10.21875 25.160156 -10.921875 25.328125 -11.640625 C 25.503906 -12.367188 25.628906 -13.082031 25.703125 -13.78125 C 25.773438 -14.488281 25.8125 -15.125 25.8125 -15.6875 C 25.8125 -16.644531 25.664062 -17.582031 25.375 -18.5 C 25.09375 -19.425781 24.675781 -20.238281 24.125 -20.9375 C 23.582031 -21.632812 22.898438 -22.195312 22.078125 -22.625 C 21.253906 -23.0625 20.3125 -23.28125 19.25 -23.28125 C 18.144531 -23.28125 17.210938 -22.953125 16.453125 -22.296875 C 15.703125 -21.640625 15.101562 -20.832031 14.65625 -19.875 C 14.207031 -18.925781 13.878906 -17.921875 13.671875 -16.859375 C 13.472656 -15.804688 13.375 -14.875 13.375 -14.0625 Z M 13.375 -14.0625 "/></g></g><g style="fill:#959085;fill-opacity:1;"><g transform="translate(63.026151, 54.650808)"><path style="stroke:none" d="M 32.46875 -3.421875 C 32.40625 -2.816406 32.328125 -2.394531 32.234375 -2.15625 C 32.148438 -1.925781 31.953125 -1.773438 31.640625 -1.703125 C 30.078125 -1.265625 28.441406 -0.820312 26.734375 -0.375 C 25.035156 0.0703125 23.382812 0.664062 21.78125 1.40625 C 21.726562 1.425781 21.648438 1.4375 21.546875 1.4375 C 21.390625 1.4375 21.296875 1.398438 21.265625 1.328125 C 21.242188 1.253906 21.234375 1.171875 21.234375 1.078125 C 21.234375 1.035156 21.238281 0.96875 21.25 0.875 C 21.257812 0.789062 21.28125 0.625 21.3125 0.375 C 21.351562 0.125 21.40625 -0.21875 21.46875 -0.65625 C 21.53125 -1.101562 21.617188 -1.691406 21.734375 -2.421875 C 19.671875 -1.078125 17.84375 -0.0976562 16.25 0.515625 C 14.664062 1.128906 13.257812 1.4375 12.03125 1.4375 C 8.957031 1.4375 6.71875 0.695312 5.3125 -0.78125 C 3.90625 -2.257812 3.203125 -4.472656 3.203125 -7.421875 C 3.203125 -7.953125 3.207031 -8.5 3.21875 -9.0625 C 3.238281 -9.625 3.296875 -10.195312 3.390625 -10.78125 C 3.597656 -12.945312 3.773438 -14.804688 3.921875 -16.359375 C 4.066406 -17.921875 4.179688 -19.242188 4.265625 -20.328125 C 4.359375 -21.410156 4.4375 -22.296875 4.5 -22.984375 C 4.570312 -23.671875 4.628906 -24.242188 4.671875 -24.703125 C 4.722656 -25.171875 4.757812 -25.554688 4.78125 -25.859375 C 4.8125 -26.160156 4.84375 -26.457031 4.875 -26.75 C 4.945312 -27.34375 5.015625 -27.757812 5.078125 -28 C 5.148438 -28.238281 5.359375 -28.394531 5.703125 -28.46875 C 6.566406 -28.632812 7.390625 -28.785156 8.171875 -28.921875 C 8.953125 -29.054688 9.722656 -29.203125 10.484375 -29.359375 C 11.253906 -29.515625 12.035156 -29.679688 12.828125 -29.859375 C 13.617188 -30.046875 14.453125 -30.269531 15.328125 -30.53125 C 15.367188 -30.53125 15.40625 -30.535156 15.4375 -30.546875 C 15.476562 -30.554688 15.519531 -30.5625 15.5625 -30.5625 C 15.78125 -30.5625 15.890625 -30.488281 15.890625 -30.34375 L 15.890625 -30.28125 C 15.816406 -29.65625 15.75 -29.066406 15.6875 -28.515625 C 15.632812 -27.960938 15.578125 -27.394531 15.515625 -26.8125 C 15.460938 -26.238281 15.40625 -25.617188 15.34375 -24.953125 C 15.28125 -24.296875 15.203125 -23.53125 15.109375 -22.65625 C 15.015625 -21.78125 14.90625 -20.769531 14.78125 -19.625 C 14.65625 -18.488281 14.5 -17.171875 14.3125 -15.671875 C 14.207031 -14.566406 14.097656 -13.46875 13.984375 -12.375 C 13.867188 -11.28125 13.8125 -10.265625 13.8125 -9.328125 C 13.8125 -8.804688 13.847656 -8.328125 13.921875 -7.890625 C 13.992188 -7.460938 14.128906 -7.097656 14.328125 -6.796875 C 14.523438 -6.492188 14.78125 -6.257812 15.09375 -6.09375 C 15.40625 -5.925781 15.804688 -5.84375 16.296875 -5.84375 C 16.679688 -5.84375 17.203125 -5.929688 17.859375 -6.109375 C 18.523438 -6.285156 19.1875 -6.585938 19.84375 -7.015625 C 20.507812 -7.453125 21.097656 -8.023438 21.609375 -8.734375 C 22.117188 -9.441406 22.410156 -10.335938 22.484375 -11.421875 C 22.609375 -13.242188 22.71875 -14.765625 22.8125 -15.984375 C 22.914062 -17.203125 23.003906 -18.226562 23.078125 -19.0625 C 23.148438 -19.90625 23.210938 -20.609375 23.265625 -21.171875 C 23.328125 -21.742188 23.378906 -22.289062 23.421875 -22.8125 C 23.472656 -23.34375 23.515625 -23.90625 23.546875 -24.5 C 23.585938 -25.101562 23.625 -25.851562 23.65625 -26.75 C 23.71875 -27.351562 23.789062 -27.769531 23.875 -28 C 23.957031 -28.238281 24.160156 -28.394531 24.484375 -28.46875 C 26.160156 -28.789062 27.867188 -29.125 29.609375 -29.46875 C 31.359375 -29.8125 33.070312 -30.25 34.75 -30.78125 C 34.894531 -30.78125 34.976562 -30.753906 35 -30.703125 C 35.03125 -30.660156 35.046875 -30.59375 35.046875 -30.5 Z M 32.46875 -3.421875 "/></g></g><g style="fill:#959085;fill-opacity:1;"><g transform="translate(98.33188, 54.650808)"><path style="stroke:none" d="M 25.875 -22.453125 C 25.488281 -22.484375 25.054688 -22.519531 24.578125 -22.5625 C 24.097656 -22.613281 23.59375 -22.640625 23.0625 -22.640625 C 22.25 -22.640625 21.421875 -22.570312 20.578125 -22.4375 C 19.742188 -22.300781 18.96875 -22.03125 18.25 -21.625 C 17.539062 -21.21875 16.925781 -20.660156 16.40625 -19.953125 C 15.894531 -19.242188 15.566406 -18.328125 15.421875 -17.203125 C 15.285156 -15.847656 15.175781 -14.734375 15.09375 -13.859375 C 15.007812 -12.984375 14.945312 -12.265625 14.90625 -11.703125 C 14.875 -11.140625 14.84375 -10.6875 14.8125 -10.34375 C 14.789062 -10.007812 14.769531 -9.695312 14.75 -9.40625 C 14.75 -9.332031 14.734375 -9.128906 14.703125 -8.796875 C 14.679688 -8.460938 14.640625 -8.078125 14.578125 -7.640625 C 14.523438 -7.203125 14.476562 -6.722656 14.4375 -6.203125 C 14.394531 -5.691406 14.34375 -5.210938 14.28125 -4.765625 C 14.226562 -4.328125 14.1875 -3.941406 14.15625 -3.609375 C 14.132812 -3.273438 14.125 -3.070312 14.125 -3 C 14.125 -2.851562 14.128906 -2.726562 14.140625 -2.625 C 14.148438 -2.53125 14.15625 -2.4375 14.15625 -2.34375 C 14.15625 -2.195312 14.082031 -2.070312 13.9375 -1.96875 C 13.800781 -1.863281 13.492188 -1.75 13.015625 -1.625 L 5.703125 1 C 5.503906 1.070312 5.238281 1.160156 4.90625 1.265625 C 4.570312 1.378906 4.25 1.4375 3.9375 1.4375 C 3.6875 1.4375 3.460938 1.367188 3.265625 1.234375 C 3.078125 1.109375 2.984375 0.890625 2.984375 0.578125 L 5.34375 -26.75 C 5.40625 -27.351562 5.476562 -27.769531 5.5625 -28 C 5.644531 -28.238281 5.847656 -28.394531 6.171875 -28.46875 C 7.847656 -28.789062 9.578125 -29.125 11.359375 -29.46875 C 13.140625 -29.8125 14.867188 -30.25 16.546875 -30.78125 C 16.691406 -30.78125 16.773438 -30.753906 16.796875 -30.703125 C 16.828125 -30.660156 16.84375 -30.59375 16.84375 -30.5 C 16.84375 -30.46875 16.835938 -30.414062 16.828125 -30.34375 C 16.828125 -30.269531 16.800781 -30.101562 16.75 -29.84375 C 16.707031 -29.582031 16.644531 -29.191406 16.5625 -28.671875 C 16.476562 -28.148438 16.363281 -27.421875 16.21875 -26.484375 C 17.0625 -27.140625 17.992188 -27.742188 19.015625 -28.296875 C 20.035156 -28.847656 21.0625 -29.320312 22.09375 -29.71875 C 23.125 -30.113281 24.113281 -30.425781 25.0625 -30.65625 C 26.019531 -30.882812 26.859375 -31 27.578125 -31 Z M 25.875 -22.453125 "/></g></g><g style="fill:#959085;fill-opacity:1;"><g transform="translate(123.266552, 54.650808)"><path style="stroke:none" d="M 31.296875 -22.671875 C 31.222656 -22.390625 31.085938 -21.992188 30.890625 -21.484375 C 30.691406 -20.972656 30.460938 -20.390625 30.203125 -19.734375 C 29.941406 -19.078125 29.65625 -18.382812 29.34375 -17.65625 C 29.03125 -16.9375 28.726562 -16.226562 28.4375 -15.53125 C 28.3125 -15.21875 28.160156 -14.988281 27.984375 -14.84375 C 27.804688 -14.695312 27.453125 -14.613281 26.921875 -14.59375 L 18.859375 -14.453125 L 17.875 -2.203125 C 17.851562 -2.035156 17.804688 -1.875 17.734375 -1.71875 C 17.660156 -1.5625 17.550781 -1.4375 17.40625 -1.34375 C 17.351562 -1.3125 17.132812 -1.207031 16.75 -1.03125 C 16.375 -0.851562 15.898438 -0.644531 15.328125 -0.40625 C 14.765625 -0.175781 14.140625 0.0703125 13.453125 0.34375 C 12.773438 0.625 12.101562 0.878906 11.4375 1.109375 C 10.78125 1.347656 10.175781 1.546875 9.625 1.703125 C 9.070312 1.859375 8.640625 1.9375 8.328125 1.9375 C 7.960938 1.9375 7.628906 1.863281 7.328125 1.71875 C 7.023438 1.582031 6.875 1.300781 6.875 0.875 C 6.851562 -0.0390625 6.875 -1.050781 6.9375 -2.15625 C 7 -3.269531 7.078125 -4.398438 7.171875 -5.546875 C 7.265625 -6.703125 7.363281 -7.835938 7.46875 -8.953125 C 7.582031 -10.066406 7.675781 -11.082031 7.75 -12 L 7.9375 -14.3125 C 6.394531 -14.3125 5.289062 -14.351562 4.625 -14.4375 C 3.96875 -14.519531 3.640625 -14.738281 3.640625 -15.09375 C 3.640625 -15.320312 3.773438 -15.632812 4.046875 -16.03125 C 4.441406 -16.5625 4.878906 -17.203125 5.359375 -17.953125 C 5.847656 -18.703125 6.316406 -19.4375 6.765625 -20.15625 C 7.222656 -20.875 7.617188 -21.507812 7.953125 -22.0625 C 8.296875 -22.613281 8.515625 -22.953125 8.609375 -23.078125 L 9.125 -30.671875 C 8.78125 -30.671875 8.476562 -30.664062 8.21875 -30.65625 C 7.957031 -30.644531 7.722656 -30.632812 7.515625 -30.625 C 7.304688 -30.613281 7.109375 -30.601562 6.921875 -30.59375 C 6.734375 -30.59375 6.539062 -30.59375 6.34375 -30.59375 C 5.457031 -30.59375 4.828125 -30.640625 4.453125 -30.734375 C 4.078125 -30.835938 3.890625 -31.023438 3.890625 -31.296875 C 3.890625 -31.429688 4 -31.695312 4.21875 -32.09375 C 4.4375 -32.5 4.707031 -32.960938 5.03125 -33.484375 C 5.351562 -34.015625 5.703125 -34.566406 6.078125 -35.140625 C 6.453125 -35.722656 6.789062 -36.265625 7.09375 -36.765625 L 8.75 -39.578125 L 21.296875 -40.015625 C 22.910156 -40.078125 24.515625 -40.140625 26.109375 -40.203125 C 27.710938 -40.265625 29.191406 -40.320312 30.546875 -40.375 C 31.898438 -40.425781 33.0625 -40.472656 34.03125 -40.515625 C 35.007812 -40.566406 35.691406 -40.601562 36.078125 -40.625 C 36.097656 -40.625 36.144531 -40.617188 36.21875 -40.609375 C 36.300781 -40.597656 36.390625 -40.566406 36.484375 -40.515625 C 36.578125 -40.472656 36.664062 -40.394531 36.75 -40.28125 C 36.832031 -40.175781 36.875 -40.023438 36.875 -39.828125 C 36.875 -39.710938 36.742188 -39.34375 36.484375 -38.71875 C 36.234375 -38.09375 35.867188 -37.164062 35.390625 -35.9375 L 34.171875 -32.734375 C 34.046875 -32.421875 33.898438 -32.179688 33.734375 -32.015625 C 33.566406 -31.847656 33.21875 -31.757812 32.6875 -31.75 C 32.0625 -31.726562 31.425781 -31.695312 30.78125 -31.65625 C 30.132812 -31.625 29.472656 -31.585938 28.796875 -31.546875 L 20.40625 -31.140625 C 20.300781 -30.421875 20.222656 -29.882812 20.171875 -29.53125 C 20.128906 -29.1875 20.101562 -28.898438 20.09375 -28.671875 C 20.082031 -28.441406 20.078125 -28.210938 20.078125 -27.984375 C 20.078125 -27.753906 20.066406 -27.390625 20.046875 -26.890625 C 20.023438 -26.535156 20 -26.238281 19.96875 -26 C 19.945312 -25.769531 19.921875 -25.535156 19.890625 -25.296875 C 19.867188 -25.066406 19.84375 -24.820312 19.8125 -24.5625 C 19.789062 -24.3125 19.769531 -23.992188 19.75 -23.609375 C 20.957031 -23.640625 22.144531 -23.675781 23.3125 -23.71875 C 24.488281 -23.757812 25.566406 -23.796875 26.546875 -23.828125 C 27.523438 -23.867188 28.375 -23.898438 29.09375 -23.921875 C 29.8125 -23.953125 30.316406 -23.96875 30.609375 -23.96875 C 30.753906 -23.96875 30.921875 -23.910156 31.109375 -23.796875 C 31.296875 -23.691406 31.390625 -23.484375 31.390625 -23.171875 C 31.390625 -23.023438 31.359375 -22.859375 31.296875 -22.671875 Z M 31.296875 -22.671875 "/></g></g><g style="fill:#959085;fill-opacity:1;"><g transform="translate(156.227753, 54.650808)"><path style="stroke:none" d="M 4.03125 -11.6875 C 4.269531 -14.207031 4.507812 -16.695312 4.75 -19.15625 C 4.988281 -21.625 5.195312 -24.15625 5.375 -26.75 C 5.414062 -27.351562 5.476562 -27.769531 5.5625 -28 C 5.644531 -28.238281 5.847656 -28.394531 6.171875 -28.46875 C 7.734375 -28.78125 9.367188 -29.101562 11.078125 -29.4375 C 12.796875 -29.78125 14.453125 -30.21875 16.046875 -30.75 C 16.109375 -30.769531 16.191406 -30.78125 16.296875 -30.78125 C 16.503906 -30.78125 16.609375 -30.707031 16.609375 -30.5625 L 14.125 -3.703125 C 14.0625 -3.085938 13.992188 -2.664062 13.921875 -2.4375 C 13.847656 -2.207031 13.648438 -2.054688 13.328125 -1.984375 C 11.765625 -1.503906 10.179688 -0.96875 8.578125 -0.375 C 6.972656 0.207031 5.28125 0.800781 3.5 1.40625 C 3.445312 1.425781 3.363281 1.4375 3.25 1.4375 C 3.050781 1.4375 2.953125 1.34375 2.953125 1.15625 C 2.953125 1.132812 2.96875 0.882812 3 0.40625 C 3.039062 -0.0625 3.09375 -0.671875 3.15625 -1.421875 C 3.21875 -2.179688 3.285156 -3.03125 3.359375 -3.96875 C 3.429688 -4.90625 3.507812 -5.84375 3.59375 -6.78125 C 3.675781 -7.71875 3.753906 -8.617188 3.828125 -9.484375 C 3.898438 -10.347656 3.96875 -11.082031 4.03125 -11.6875 Z M 6.09375 -33.703125 C 6.144531 -34.492188 6.1875 -35.097656 6.21875 -35.515625 C 6.25 -35.941406 6.269531 -36.257812 6.28125 -36.46875 C 6.300781 -36.6875 6.3125 -36.820312 6.3125 -36.875 C 6.3125 -36.925781 6.316406 -36.96875 6.328125 -37 C 6.335938 -37.03125 6.347656 -37.082031 6.359375 -37.15625 C 6.367188 -37.238281 6.378906 -37.414062 6.390625 -37.6875 C 6.410156 -37.957031 6.4375 -38.347656 6.46875 -38.859375 C 6.507812 -39.378906 6.566406 -40.085938 6.640625 -40.984375 C 6.679688 -41.585938 6.742188 -42.003906 6.828125 -42.234375 C 6.910156 -42.460938 7.117188 -42.613281 7.453125 -42.6875 C 9.015625 -43 10.648438 -43.328125 12.359375 -43.671875 C 14.066406 -44.015625 15.722656 -44.453125 17.328125 -44.984375 C 17.378906 -45.003906 17.457031 -45.015625 17.5625 -45.015625 C 17.625 -44.898438 17.703125 -44.828125 17.796875 -44.796875 L 17.875 -44.734375 L 17.265625 -37.171875 C 17.210938 -36.566406 17.144531 -36.144531 17.0625 -35.90625 C 16.976562 -35.664062 16.78125 -35.519531 16.46875 -35.46875 C 14.90625 -35.175781 13.320312 -34.851562 11.71875 -34.5 C 10.125 -34.15625 8.429688 -33.804688 6.640625 -33.453125 C 6.585938 -33.429688 6.507812 -33.421875 6.40625 -33.421875 C 6.195312 -33.421875 6.09375 -33.515625 6.09375 -33.703125 Z M 6.09375 -33.703125 "/></g></g><g style="fill:#959085;fill-opacity:1;"><g transform="translate(173.108305, 54.650808)"><path style="stroke:none" d="M 18.171875 -21.265625 C 17.921875 -19.335938 17.675781 -17.410156 17.4375 -15.484375 C 17.207031 -13.566406 17.066406 -11.769531 17.015625 -10.09375 C 17.015625 -9.375 17.066406 -8.773438 17.171875 -8.296875 C 17.285156 -7.816406 17.445312 -7.4375 17.65625 -7.15625 C 17.875 -6.882812 18.128906 -6.691406 18.421875 -6.578125 C 18.710938 -6.460938 19.046875 -6.40625 19.421875 -6.40625 C 20.003906 -6.40625 20.644531 -6.488281 21.34375 -6.65625 C 22.039062 -6.832031 22.738281 -7.0625 23.4375 -7.34375 C 23.664062 -7.425781 23.859375 -7.488281 24.015625 -7.53125 C 24.171875 -7.582031 24.300781 -7.609375 24.40625 -7.609375 C 24.59375 -7.609375 24.71875 -7.523438 24.78125 -7.359375 C 24.84375 -7.191406 24.90625 -6.898438 24.96875 -6.484375 C 25.039062 -6.078125 25.140625 -5.523438 25.265625 -4.828125 C 25.390625 -4.128906 25.597656 -3.242188 25.890625 -2.171875 C 25.910156 -2.085938 25.925781 -2.007812 25.9375 -1.9375 C 25.945312 -1.875 25.953125 -1.816406 25.953125 -1.765625 C 25.953125 -1.503906 25.851562 -1.316406 25.65625 -1.203125 C 25.46875 -1.097656 25.15625 -0.972656 24.71875 -0.828125 C 23.957031 -0.566406 23.160156 -0.300781 22.328125 -0.03125 C 21.492188 0.226562 20.664062 0.46875 19.84375 0.6875 C 19.019531 0.90625 18.234375 1.082031 17.484375 1.21875 C 16.734375 1.363281 16.070312 1.4375 15.5 1.4375 C 12.425781 1.4375 10.1875 0.675781 8.78125 -0.84375 C 7.375 -2.375 6.671875 -4.703125 6.671875 -7.828125 C 6.671875 -8.359375 6.6875 -8.90625 6.71875 -9.46875 C 6.757812 -10.03125 6.8125 -10.613281 6.875 -11.21875 C 7.050781 -13.0625 7.207031 -14.804688 7.34375 -16.453125 C 7.488281 -18.097656 7.632812 -19.675781 7.78125 -21.1875 L 4.875 -21.1875 C 3.882812 -21.1875 3.164062 -21.226562 2.71875 -21.3125 C 2.28125 -21.394531 2.0625 -21.5625 2.0625 -21.8125 C 2.0625 -21.882812 2.15625 -22.082031 2.34375 -22.40625 C 2.53125 -22.726562 2.765625 -23.113281 3.046875 -23.5625 C 3.328125 -24.019531 3.632812 -24.503906 3.96875 -25.015625 C 4.300781 -25.523438 4.617188 -26.003906 4.921875 -26.453125 C 5.222656 -26.910156 5.484375 -27.300781 5.703125 -27.625 C 5.929688 -27.957031 6.070312 -28.164062 6.125 -28.25 L 8.078125 -28.25 C 8.242188 -29.644531 8.375 -30.8125 8.46875 -31.75 C 8.570312 -32.695312 8.65625 -33.484375 8.71875 -34.109375 C 8.789062 -34.734375 8.851562 -35.21875 8.90625 -35.5625 C 8.957031 -35.90625 9.015625 -36.160156 9.078125 -36.328125 C 9.148438 -36.492188 9.234375 -36.597656 9.328125 -36.640625 C 9.429688 -36.679688 9.566406 -36.722656 9.734375 -36.765625 C 10.566406 -36.929688 11.367188 -37.082031 12.140625 -37.21875 C 12.910156 -37.351562 13.679688 -37.492188 14.453125 -37.640625 C 15.222656 -37.796875 16.007812 -37.96875 16.8125 -38.15625 C 17.613281 -38.351562 18.445312 -38.578125 19.3125 -38.828125 C 19.363281 -38.828125 19.394531 -38.832031 19.40625 -38.84375 C 19.425781 -38.851562 19.46875 -38.859375 19.53125 -38.859375 C 19.75 -38.859375 19.859375 -38.785156 19.859375 -38.640625 L 19.859375 -38.578125 C 19.765625 -37.566406 19.617188 -36.160156 19.421875 -34.359375 C 19.234375 -32.554688 19.019531 -30.519531 18.78125 -28.25 L 26.171875 -28.25 C 26.316406 -28.25 26.457031 -28.195312 26.59375 -28.09375 C 26.738281 -27.988281 26.8125 -27.816406 26.8125 -27.578125 C 26.8125 -27.484375 26.695312 -27.148438 26.46875 -26.578125 C 26.25 -26.015625 25.941406 -25.273438 25.546875 -24.359375 L 24.546875 -22.125 C 24.421875 -21.84375 24.285156 -21.632812 24.140625 -21.5 C 24.003906 -21.375 23.726562 -21.296875 23.3125 -21.265625 Z M 18.171875 -21.265625 "/></g></g><g style="fill:#959085;fill-opacity:1;"><g transform="translate(198.236034, 54.650808)"><path style="stroke:none" d="M 27.328125 -36.953125 C 27.472656 -37.566406 27.601562 -38.007812 27.71875 -38.28125 C 27.832031 -38.550781 28.070312 -38.734375 28.4375 -38.828125 L 35.578125 -40.515625 C 35.796875 -40.585938 36.035156 -40.625 36.296875 -40.625 C 36.535156 -40.625 36.707031 -40.539062 36.8125 -40.375 C 36.925781 -40.207031 36.984375 -39.894531 36.984375 -39.4375 C 36.867188 -39 36.773438 -38.320312 36.703125 -37.40625 C 36.628906 -36.5 36.570312 -35.503906 36.53125 -34.421875 C 36.5 -33.335938 36.472656 -32.25 36.453125 -31.15625 C 36.441406 -30.0625 36.4375 -29.109375 36.4375 -28.296875 L 36.4375 -26.78125 C 36.4375 -25.644531 36.425781 -24.40625 36.40625 -23.0625 C 36.382812 -21.71875 36.359375 -20.351562 36.328125 -18.96875 C 36.304688 -17.59375 36.273438 -16.234375 36.234375 -14.890625 C 36.203125 -13.546875 36.164062 -12.285156 36.125 -11.109375 L 35.96875 -6.40625 C 35.945312 -6.3125 35.9375 -6.226562 35.9375 -6.15625 C 35.9375 -6.082031 35.9375 -6.007812 35.9375 -5.9375 L 35.9375 -5.515625 C 35.9375 -5.203125 35.941406 -4.9375 35.953125 -4.71875 C 35.960938 -4.507812 35.96875 -4.328125 35.96875 -4.171875 C 35.96875 -3.984375 35.953125 -3.816406 35.921875 -3.671875 C 35.890625 -3.523438 35.816406 -3.378906 35.703125 -3.234375 C 35.597656 -3.097656 35.445312 -2.957031 35.25 -2.8125 C 35.0625 -2.664062 34.800781 -2.484375 34.46875 -2.265625 C 34.289062 -2.128906 33.988281 -1.9375 33.5625 -1.6875 C 33.144531 -1.445312 32.675781 -1.171875 32.15625 -0.859375 C 31.644531 -0.546875 31.113281 -0.222656 30.5625 0.109375 C 30.007812 0.441406 29.503906 0.738281 29.046875 1 C 28.585938 1.269531 28.210938 1.488281 27.921875 1.65625 C 27.640625 1.820312 27.5 1.90625 27.5 1.90625 L 14.703125 -17.796875 L 13.546875 -1.65625 C 13.523438 -1.507812 13.488281 -1.351562 13.4375 -1.1875 C 13.394531 -1.019531 13.273438 -0.890625 13.078125 -0.796875 C 12.910156 -0.722656 12.625 -0.609375 12.21875 -0.453125 C 11.8125 -0.296875 11.335938 -0.117188 10.796875 0.078125 C 10.253906 0.285156 9.679688 0.492188 9.078125 0.703125 C 8.484375 0.910156 7.921875 1.101562 7.390625 1.28125 C 6.859375 1.457031 6.382812 1.597656 5.96875 1.703125 C 5.550781 1.816406 5.269531 1.875 5.125 1.875 C 4.851562 1.875 4.625 1.800781 4.4375 1.65625 C 4.257812 1.507812 4.171875 1.242188 4.171875 0.859375 C 4.347656 -1.441406 4.554688 -3.945312 4.796875 -6.65625 C 5.035156 -9.375 5.265625 -12.15625 5.484375 -15 C 5.703125 -17.851562 5.910156 -20.695312 6.109375 -23.53125 C 6.304688 -26.375 6.46875 -29.078125 6.59375 -31.640625 C 6.59375 -31.710938 6.476562 -31.953125 6.25 -32.359375 C 6.019531 -32.773438 5.757812 -33.226562 5.46875 -33.71875 C 5.1875 -34.207031 4.929688 -34.664062 4.703125 -35.09375 C 4.472656 -35.53125 4.359375 -35.800781 4.359375 -35.90625 C 4.359375 -36.039062 4.425781 -36.160156 4.5625 -36.265625 C 4.695312 -36.378906 4.921875 -36.523438 5.234375 -36.703125 L 12.609375 -40.875 C 12.660156 -40.875 12.734375 -40.878906 12.828125 -40.890625 C 12.929688 -40.910156 13.019531 -40.921875 13.09375 -40.921875 C 13.300781 -40.921875 13.460938 -40.898438 13.578125 -40.859375 C 13.703125 -40.816406 13.828125 -40.675781 13.953125 -40.4375 L 27.328125 -16.296875 Z M 27.328125 -36.953125 "/></g></g><g style="fill:#959085;fill-opacity:1;"><g transform="translate(235.858702, 54.650808)"><path style="stroke:none" d="M 31.46875 -5.546875 C 31.445312 -5.472656 31.4375 -5.398438 31.4375 -5.328125 C 31.4375 -5.265625 31.4375 -5.207031 31.4375 -5.15625 C 31.4375 -4.695312 31.507812 -4.316406 31.65625 -4.015625 C 31.800781 -3.710938 31.960938 -3.460938 32.140625 -3.265625 C 32.316406 -3.078125 32.476562 -2.921875 32.625 -2.796875 C 32.769531 -2.679688 32.84375 -2.578125 32.84375 -2.484375 C 32.84375 -2.222656 32.566406 -1.984375 32.015625 -1.765625 L 24.609375 1.40625 C 24.585938 1.425781 24.519531 1.4375 24.40625 1.4375 C 24.257812 1.4375 24.113281 1.304688 23.96875 1.046875 C 23.820312 0.785156 23.675781 0.457031 23.53125 0.0625 C 23.394531 -0.332031 23.265625 -0.753906 23.140625 -1.203125 C 23.023438 -1.648438 22.925781 -2.066406 22.84375 -2.453125 C 21.675781 -1.109375 20.421875 -0.125 19.078125 0.5 C 17.742188 1.125 16.414062 1.4375 15.09375 1.4375 C 13.539062 1.4375 12.03125 1.09375 10.5625 0.40625 C 9.09375 -0.269531 7.785156 -1.238281 6.640625 -2.5 C 5.503906 -3.757812 4.59375 -5.28125 3.90625 -7.0625 C 3.21875 -8.84375 2.875 -10.847656 2.875 -13.078125 C 2.875 -15.703125 3.253906 -18.097656 4.015625 -20.265625 C 4.773438 -22.441406 5.804688 -24.3125 7.109375 -25.875 C 8.421875 -27.4375 9.941406 -28.644531 11.671875 -29.5 C 13.410156 -30.351562 15.253906 -30.78125 17.203125 -30.78125 C 18.585938 -30.78125 19.894531 -30.5 21.125 -29.9375 C 22.351562 -29.375 23.519531 -28.648438 24.625 -27.765625 C 24.738281 -28.316406 24.800781 -28.757812 24.8125 -29.09375 C 24.832031 -29.425781 24.875 -29.679688 24.9375 -29.859375 C 25.007812 -30.046875 25.132812 -30.171875 25.3125 -30.234375 C 25.5 -30.304688 25.804688 -30.359375 26.234375 -30.390625 C 27.554688 -30.578125 28.875 -30.75 30.1875 -30.90625 C 31.5 -31.0625 32.875 -31.175781 34.3125 -31.25 Z M 23.21875 -15.9375 C 23.40625 -16.988281 23.53125 -17.976562 23.59375 -18.90625 C 23.65625 -19.832031 23.707031 -20.679688 23.75 -21.453125 C 23.457031 -21.671875 23.140625 -21.898438 22.796875 -22.140625 C 22.453125 -22.378906 22.082031 -22.601562 21.6875 -22.8125 C 21.289062 -23.03125 20.875 -23.203125 20.4375 -23.328125 C 20.007812 -23.460938 19.554688 -23.53125 19.078125 -23.53125 C 18.085938 -23.53125 17.253906 -23.207031 16.578125 -22.5625 C 15.910156 -21.914062 15.367188 -21.125 14.953125 -20.1875 C 14.546875 -19.25 14.253906 -18.253906 14.078125 -17.203125 C 13.898438 -16.160156 13.8125 -15.234375 13.8125 -14.421875 C 13.8125 -11.515625 14.191406 -9.382812 14.953125 -8.03125 C 15.722656 -6.6875 16.785156 -6.015625 18.140625 -6.015625 C 18.691406 -6.015625 19.304688 -6.171875 19.984375 -6.484375 C 20.671875 -6.796875 21.363281 -7.226562 22.0625 -7.78125 Z M 23.21875 -15.9375 "/></g></g><g style="fill:#959085;fill-opacity:1;"><g transform="translate(270.281788, 54.650808)"><path style="stroke:none" d="M 18.171875 -21.265625 C 17.921875 -19.335938 17.675781 -17.410156 17.4375 -15.484375 C 17.207031 -13.566406 17.066406 -11.769531 17.015625 -10.09375 C 17.015625 -9.375 17.066406 -8.773438 17.171875 -8.296875 C 17.285156 -7.816406 17.445312 -7.4375 17.65625 -7.15625 C 17.875 -6.882812 18.128906 -6.691406 18.421875 -6.578125 C 18.710938 -6.460938 19.046875 -6.40625 19.421875 -6.40625 C 20.003906 -6.40625 20.644531 -6.488281 21.34375 -6.65625 C 22.039062 -6.832031 22.738281 -7.0625 23.4375 -7.34375 C 23.664062 -7.425781 23.859375 -7.488281 24.015625 -7.53125 C 24.171875 -7.582031 24.300781 -7.609375 24.40625 -7.609375 C 24.59375 -7.609375 24.71875 -7.523438 24.78125 -7.359375 C 24.84375 -7.191406 24.90625 -6.898438 24.96875 -6.484375 C 25.039062 -6.078125 25.140625 -5.523438 25.265625 -4.828125 C 25.390625 -4.128906 25.597656 -3.242188 25.890625 -2.171875 C 25.910156 -2.085938 25.925781 -2.007812 25.9375 -1.9375 C 25.945312 -1.875 25.953125 -1.816406 25.953125 -1.765625 C 25.953125 -1.503906 25.851562 -1.316406 25.65625 -1.203125 C 25.46875 -1.097656 25.15625 -0.972656 24.71875 -0.828125 C 23.957031 -0.566406 23.160156 -0.300781 22.328125 -0.03125 C 21.492188 0.226562 20.664062 0.46875 19.84375 0.6875 C 19.019531 0.90625 18.234375 1.082031 17.484375 1.21875 C 16.734375 1.363281 16.070312 1.4375 15.5 1.4375 C 12.425781 1.4375 10.1875 0.675781 8.78125 -0.84375 C 7.375 -2.375 6.671875 -4.703125 6.671875 -7.828125 C 6.671875 -8.359375 6.6875 -8.90625 6.71875 -9.46875 C 6.757812 -10.03125 6.8125 -10.613281 6.875 -11.21875 C 7.050781 -13.0625 7.207031 -14.804688 7.34375 -16.453125 C 7.488281 -18.097656 7.632812 -19.675781 7.78125 -21.1875 L 4.875 -21.1875 C 3.882812 -21.1875 3.164062 -21.226562 2.71875 -21.3125 C 2.28125 -21.394531 2.0625 -21.5625 2.0625 -21.8125 C 2.0625 -21.882812 2.15625 -22.082031 2.34375 -22.40625 C 2.53125 -22.726562 2.765625 -23.113281 3.046875 -23.5625 C 3.328125 -24.019531 3.632812 -24.503906 3.96875 -25.015625 C 4.300781 -25.523438 4.617188 -26.003906 4.921875 -26.453125 C 5.222656 -26.910156 5.484375 -27.300781 5.703125 -27.625 C 5.929688 -27.957031 6.070312 -28.164062 6.125 -28.25 L 8.078125 -28.25 C 8.242188 -29.644531 8.375 -30.8125 8.46875 -31.75 C 8.570312 -32.695312 8.65625 -33.484375 8.71875 -34.109375 C 8.789062 -34.734375 8.851562 -35.21875 8.90625 -35.5625 C 8.957031 -35.90625 9.015625 -36.160156 9.078125 -36.328125 C 9.148438 -36.492188 9.234375 -36.597656 9.328125 -36.640625 C 9.429688 -36.679688 9.566406 -36.722656 9.734375 -36.765625 C 10.566406 -36.929688 11.367188 -37.082031 12.140625 -37.21875 C 12.910156 -37.351562 13.679688 -37.492188 14.453125 -37.640625 C 15.222656 -37.796875 16.007812 -37.96875 16.8125 -38.15625 C 17.613281 -38.351562 18.445312 -38.578125 19.3125 -38.828125 C 19.363281 -38.828125 19.394531 -38.832031 19.40625 -38.84375 C 19.425781 -38.851562 19.46875 -38.859375 19.53125 -38.859375 C 19.75 -38.859375 19.859375 -38.785156 19.859375 -38.640625 L 19.859375 -38.578125 C 19.765625 -37.566406 19.617188 -36.160156 19.421875 -34.359375 C 19.234375 -32.554688 19.019531 -30.519531 18.78125 -28.25 L 26.171875 -28.25 C 26.316406 -28.25 26.457031 -28.195312 26.59375 -28.09375 C 26.738281 -27.988281 26.8125 -27.816406 26.8125 -27.578125 C 26.8125 -27.484375 26.695312 -27.148438 26.46875 -26.578125 C 26.25 -26.015625 25.941406 -25.273438 25.546875 -24.359375 L 24.546875 -22.125 C 24.421875 -21.84375 24.285156 -21.632812 24.140625 -21.5 C 24.003906 -21.375 23.726562 -21.296875 23.3125 -21.265625 Z M 18.171875 -21.265625 "/></g></g><g style="fill:#959085;fill-opacity:1;"><g transform="translate(296.043951, 54.650808)"><path style="stroke:none" d="M 32.46875 -3.421875 C 32.40625 -2.816406 32.328125 -2.394531 32.234375 -2.15625 C 32.148438 -1.925781 31.953125 -1.773438 31.640625 -1.703125 C 30.078125 -1.265625 28.441406 -0.820312 26.734375 -0.375 C 25.035156 0.0703125 23.382812 0.664062 21.78125 1.40625 C 21.726562 1.425781 21.648438 1.4375 21.546875 1.4375 C 21.390625 1.4375 21.296875 1.398438 21.265625 1.328125 C 21.242188 1.253906 21.234375 1.171875 21.234375 1.078125 C 21.234375 1.035156 21.238281 0.96875 21.25 0.875 C 21.257812 0.789062 21.28125 0.625 21.3125 0.375 C 21.351562 0.125 21.40625 -0.21875 21.46875 -0.65625 C 21.53125 -1.101562 21.617188 -1.691406 21.734375 -2.421875 C 19.671875 -1.078125 17.84375 -0.0976562 16.25 0.515625 C 14.664062 1.128906 13.257812 1.4375 12.03125 1.4375 C 8.957031 1.4375 6.71875 0.695312 5.3125 -0.78125 C 3.90625 -2.257812 3.203125 -4.472656 3.203125 -7.421875 C 3.203125 -7.953125 3.207031 -8.5 3.21875 -9.0625 C 3.238281 -9.625 3.296875 -10.195312 3.390625 -10.78125 C 3.597656 -12.945312 3.773438 -14.804688 3.921875 -16.359375 C 4.066406 -17.921875 4.179688 -19.242188 4.265625 -20.328125 C 4.359375 -21.410156 4.4375 -22.296875 4.5 -22.984375 C 4.570312 -23.671875 4.628906 -24.242188 4.671875 -24.703125 C 4.722656 -25.171875 4.757812 -25.554688 4.78125 -25.859375 C 4.8125 -26.160156 4.84375 -26.457031 4.875 -26.75 C 4.945312 -27.34375 5.015625 -27.757812 5.078125 -28 C 5.148438 -28.238281 5.359375 -28.394531 5.703125 -28.46875 C 6.566406 -28.632812 7.390625 -28.785156 8.171875 -28.921875 C 8.953125 -29.054688 9.722656 -29.203125 10.484375 -29.359375 C 11.253906 -29.515625 12.035156 -29.679688 12.828125 -29.859375 C 13.617188 -30.046875 14.453125 -30.269531 15.328125 -30.53125 C 15.367188 -30.53125 15.40625 -30.535156 15.4375 -30.546875 C 15.476562 -30.554688 15.519531 -30.5625 15.5625 -30.5625 C 15.78125 -30.5625 15.890625 -30.488281 15.890625 -30.34375 L 15.890625 -30.28125 C 15.816406 -29.65625 15.75 -29.066406 15.6875 -28.515625 C 15.632812 -27.960938 15.578125 -27.394531 15.515625 -26.8125 C 15.460938 -26.238281 15.40625 -25.617188 15.34375 -24.953125 C 15.28125 -24.296875 15.203125 -23.53125 15.109375 -22.65625 C 15.015625 -21.78125 14.90625 -20.769531 14.78125 -19.625 C 14.65625 -18.488281 14.5 -17.171875 14.3125 -15.671875 C 14.207031 -14.566406 14.097656 -13.46875 13.984375 -12.375 C 13.867188 -11.28125 13.8125 -10.265625 13.8125 -9.328125 C 13.8125 -8.804688 13.847656 -8.328125 13.921875 -7.890625 C 13.992188 -7.460938 14.128906 -7.097656 14.328125 -6.796875 C 14.523438 -6.492188 14.78125 -6.257812 15.09375 -6.09375 C 15.40625 -5.925781 15.804688 -5.84375 16.296875 -5.84375 C 16.679688 -5.84375 17.203125 -5.929688 17.859375 -6.109375 C 18.523438 -6.285156 19.1875 -6.585938 19.84375 -7.015625 C 20.507812 -7.453125 21.097656 -8.023438 21.609375 -8.734375 C 22.117188 -9.441406 22.410156 -10.335938 22.484375 -11.421875 C 22.609375 -13.242188 22.71875 -14.765625 22.8125 -15.984375 C 22.914062 -17.203125 23.003906 -18.226562 23.078125 -19.0625 C 23.148438 -19.90625 23.210938 -20.609375 23.265625 -21.171875 C 23.328125 -21.742188 23.378906 -22.289062 23.421875 -22.8125 C 23.472656 -23.34375 23.515625 -23.90625 23.546875 -24.5 C 23.585938 -25.101562 23.625 -25.851562 23.65625 -26.75 C 23.71875 -27.351562 23.789062 -27.769531 23.875 -28 C 23.957031 -28.238281 24.160156 -28.394531 24.484375 -28.46875 C 26.160156 -28.789062 27.867188 -29.125 29.609375 -29.46875 C 31.359375 -29.8125 33.070312 -30.25 34.75 -30.78125 C 34.894531 -30.78125 34.976562 -30.753906 35 -30.703125 C 35.03125 -30.660156 35.046875 -30.59375 35.046875 -30.5 Z M 32.46875 -3.421875 "/></g></g><g style="fill:#959085;fill-opacity:1;"><g transform="translate(331.34968, 54.650808)"><path style="stroke:none" d="M 25.875 -22.453125 C 25.488281 -22.484375 25.054688 -22.519531 24.578125 -22.5625 C 24.097656 -22.613281 23.59375 -22.640625 23.0625 -22.640625 C 22.25 -22.640625 21.421875 -22.570312 20.578125 -22.4375 C 19.742188 -22.300781 18.96875 -22.03125 18.25 -21.625 C 17.539062 -21.21875 16.925781 -20.660156 16.40625 -19.953125 C 15.894531 -19.242188 15.566406 -18.328125 15.421875 -17.203125 C 15.285156 -15.847656 15.175781 -14.734375 15.09375 -13.859375 C 15.007812 -12.984375 14.945312 -12.265625 14.90625 -11.703125 C 14.875 -11.140625 14.84375 -10.6875 14.8125 -10.34375 C 14.789062 -10.007812 14.769531 -9.695312 14.75 -9.40625 C 14.75 -9.332031 14.734375 -9.128906 14.703125 -8.796875 C 14.679688 -8.460938 14.640625 -8.078125 14.578125 -7.640625 C 14.523438 -7.203125 14.476562 -6.722656 14.4375 -6.203125 C 14.394531 -5.691406 14.34375 -5.210938 14.28125 -4.765625 C 14.226562 -4.328125 14.1875 -3.941406 14.15625 -3.609375 C 14.132812 -3.273438 14.125 -3.070312 14.125 -3 C 14.125 -2.851562 14.128906 -2.726562 14.140625 -2.625 C 14.148438 -2.53125 14.15625 -2.4375 14.15625 -2.34375 C 14.15625 -2.195312 14.082031 -2.070312 13.9375 -1.96875 C 13.800781 -1.863281 13.492188 -1.75 13.015625 -1.625 L 5.703125 1 C 5.503906 1.070312 5.238281 1.160156 4.90625 1.265625 C 4.570312 1.378906 4.25 1.4375 3.9375 1.4375 C 3.6875 1.4375 3.460938 1.367188 3.265625 1.234375 C 3.078125 1.109375 2.984375 0.890625 2.984375 0.578125 L 5.34375 -26.75 C 5.40625 -27.351562 5.476562 -27.769531 5.5625 -28 C 5.644531 -28.238281 5.847656 -28.394531 6.171875 -28.46875 C 7.847656 -28.789062 9.578125 -29.125 11.359375 -29.46875 C 13.140625 -29.8125 14.867188 -30.25 16.546875 -30.78125 C 16.691406 -30.78125 16.773438 -30.753906 16.796875 -30.703125 C 16.828125 -30.660156 16.84375 -30.59375 16.84375 -30.5 C 16.84375 -30.46875 16.835938 -30.414062 16.828125 -30.34375 C 16.828125 -30.269531 16.800781 -30.101562 16.75 -29.84375 C 16.707031 -29.582031 16.644531 -29.191406 16.5625 -28.671875 C 16.476562 -28.148438 16.363281 -27.421875 16.21875 -26.484375 C 17.0625 -27.140625 17.992188 -27.742188 19.015625 -28.296875 C 20.035156 -28.847656 21.0625 -29.320312 22.09375 -29.71875 C 23.125 -30.113281 24.113281 -30.425781 25.0625 -30.65625 C 26.019531 -30.882812 26.859375 -31 27.578125 -31 Z M 25.875 -22.453125 "/></g></g><g style="fill:#959085;fill-opacity:1;"><g transform="translate(355.705068, 54.650808)"><path style="stroke:none" d="M 19.75 -30.78125 C 21.5 -30.78125 23.082031 -30.453125 24.5 -29.796875 C 25.925781 -29.148438 27.148438 -28.304688 28.171875 -27.265625 C 29.191406 -26.222656 29.976562 -25.054688 30.53125 -23.765625 C 31.082031 -22.484375 31.359375 -21.195312 31.359375 -19.90625 C 31.359375 -18.769531 31.007812 -17.625 30.3125 -16.46875 C 29.613281 -15.320312 28.632812 -14.289062 27.375 -13.375 C 26.113281 -12.457031 24.597656 -11.710938 22.828125 -11.140625 C 21.066406 -10.566406 19.128906 -10.28125 17.015625 -10.28125 C 15.910156 -10.28125 14.753906 -10.394531 13.546875 -10.625 C 13.617188 -9.832031 13.847656 -9.148438 14.234375 -8.578125 C 14.617188 -8.003906 15.101562 -7.535156 15.6875 -7.171875 C 16.28125 -6.804688 16.945312 -6.535156 17.6875 -6.359375 C 18.4375 -6.179688 19.207031 -6.09375 20 -6.09375 C 20.875 -6.09375 21.722656 -6.171875 22.546875 -6.328125 C 23.367188 -6.484375 24.15625 -6.691406 24.90625 -6.953125 C 25.65625 -7.210938 26.378906 -7.5 27.078125 -7.8125 C 27.773438 -8.125 28.4375 -8.4375 29.0625 -8.75 C 29.226562 -8.78125 29.367188 -8.804688 29.484375 -8.828125 C 29.609375 -8.859375 29.726562 -8.875 29.84375 -8.875 C 29.84375 -8.875 29.835938 -8.726562 29.828125 -8.4375 C 29.816406 -8.144531 29.8125 -7.734375 29.8125 -7.203125 C 29.8125 -6.671875 29.804688 -6.023438 29.796875 -5.265625 C 29.785156 -4.515625 29.773438 -3.679688 29.765625 -2.765625 C 29.816406 -2.671875 29.847656 -2.578125 29.859375 -2.484375 C 29.878906 -2.390625 29.890625 -2.316406 29.890625 -2.265625 C 29.890625 -2.046875 29.6875 -1.804688 29.28125 -1.546875 C 28.882812 -1.285156 28.359375 -1.015625 27.703125 -0.734375 C 27.046875 -0.460938 26.300781 -0.203125 25.46875 0.046875 C 24.632812 0.304688 23.785156 0.539062 22.921875 0.75 C 22.054688 0.96875 21.21875 1.132812 20.40625 1.25 C 19.601562 1.375 18.894531 1.4375 18.28125 1.4375 C 16.300781 1.4375 14.375 1.085938 12.5 0.390625 C 10.632812 -0.296875 8.976562 -1.28125 7.53125 -2.5625 C 6.09375 -3.851562 4.941406 -5.414062 4.078125 -7.25 C 3.210938 -9.09375 2.78125 -11.160156 2.78125 -13.453125 C 2.78125 -15.867188 3.191406 -18.128906 4.015625 -20.234375 C 4.847656 -22.335938 6.015625 -24.171875 7.515625 -25.734375 C 9.015625 -27.296875 10.800781 -28.523438 12.875 -29.421875 C 14.957031 -30.328125 17.25 -30.78125 19.75 -30.78125 Z M 19.421875 -23.4375 C 18.660156 -23.4375 17.960938 -23.273438 17.328125 -22.953125 C 16.691406 -22.640625 16.113281 -22.179688 15.59375 -21.578125 C 15.070312 -20.984375 14.617188 -20.265625 14.234375 -19.421875 C 13.847656 -18.585938 13.535156 -17.664062 13.296875 -16.65625 C 15.191406 -16.988281 16.765625 -17.335938 18.015625 -17.703125 C 19.265625 -18.078125 20.265625 -18.453125 21.015625 -18.828125 C 21.765625 -19.203125 22.296875 -19.578125 22.609375 -19.953125 C 22.921875 -20.328125 23.078125 -20.691406 23.078125 -21.046875 C 23.078125 -21.378906 22.953125 -21.691406 22.703125 -21.984375 C 22.460938 -22.273438 22.15625 -22.53125 21.78125 -22.75 C 21.414062 -22.96875 21.015625 -23.132812 20.578125 -23.25 C 20.148438 -23.375 19.765625 -23.4375 19.421875 -23.4375 Z M 19.421875 -23.4375 "/></g></g><g style="fill:#959085;fill-opacity:1;"><g transform="translate(409.719771, 35.222761)"><path style="stroke:none" d="M 10.015625 -10.59375 L 6.359375 -3.5 L 6.359375 0 L 3.78125 0 L 3.78125 -3.5 L 0.109375 -10.59375 L 3.03125 -10.59375 L 5.09375 -6.15625 L 7.125 -10.59375 Z M 10.015625 -10.59375 "/></g></g><g style="fill:#959085;fill-opacity:1;"><g transform="translate(419.841028, 35.222761)"><path style="stroke:none" d="M 5.953125 0.109375 C 4.953125 0.109375 4.035156 -0.117188 3.203125 -0.578125 C 2.378906 -1.046875 1.722656 -1.695312 1.234375 -2.53125 C 0.742188 -3.363281 0.5 -4.296875 0.5 -5.328125 C 0.5 -6.359375 0.742188 -7.285156 1.234375 -8.109375 C 1.722656 -8.941406 2.378906 -9.585938 3.203125 -10.046875 C 4.035156 -10.515625 4.953125 -10.75 5.953125 -10.75 C 6.941406 -10.75 7.851562 -10.515625 8.6875 -10.046875 C 9.519531 -9.585938 10.171875 -8.941406 10.640625 -8.109375 C 11.117188 -7.285156 11.359375 -6.359375 11.359375 -5.328125 C 11.359375 -4.296875 11.117188 -3.363281 10.640625 -2.53125 C 10.160156 -1.695312 9.503906 -1.046875 8.671875 -0.578125 C 7.847656 -0.117188 6.941406 0.109375 5.953125 0.109375 Z M 5.953125 -2.25 C 6.796875 -2.25 7.46875 -2.53125 7.96875 -3.09375 C 8.476562 -3.65625 8.734375 -4.398438 8.734375 -5.328125 C 8.734375 -6.265625 8.476562 -7.007812 7.96875 -7.5625 C 7.46875 -8.125 6.796875 -8.40625 5.953125 -8.40625 C 5.085938 -8.40625 4.398438 -8.128906 3.890625 -7.578125 C 3.390625 -7.023438 3.140625 -6.273438 3.140625 -5.328125 C 3.140625 -4.390625 3.390625 -3.640625 3.890625 -3.078125 C 4.398438 -2.523438 5.085938 -2.25 5.953125 -2.25 Z M 5.953125 -2.25 "/></g></g><g style="fill:#959085;fill-opacity:1;"><g transform="translate(431.696927, 35.222761)"><path style="stroke:none" d="M 3.46875 -10.59375 L 3.46875 -4.25 C 3.46875 -3.625 3.625 -3.140625 3.9375 -2.796875 C 4.25 -2.453125 4.707031 -2.28125 5.3125 -2.28125 C 5.914062 -2.28125 6.378906 -2.453125 6.703125 -2.796875 C 7.023438 -3.140625 7.1875 -3.625 7.1875 -4.25 L 7.1875 -10.59375 L 9.765625 -10.59375 L 9.765625 -4.265625 C 9.765625 -3.328125 9.5625 -2.53125 9.15625 -1.875 C 8.757812 -1.21875 8.21875 -0.722656 7.53125 -0.390625 C 6.851562 -0.0546875 6.097656 0.109375 5.265625 0.109375 C 4.429688 0.109375 3.679688 -0.0507812 3.015625 -0.375 C 2.359375 -0.707031 1.835938 -1.203125 1.453125 -1.859375 C 1.078125 -2.523438 0.890625 -3.328125 0.890625 -4.265625 L 0.890625 -10.59375 Z M 3.46875 -10.59375 "/></g></g><g style="fill:#959085;fill-opacity:1;"><g transform="translate(442.331035, 35.222761)"><path style="stroke:none" d="M 6.34375 0 L 4.140625 -4 L 3.515625 -4 L 3.515625 0 L 0.9375 0 L 0.9375 -10.59375 L 5.265625 -10.59375 C 6.097656 -10.59375 6.804688 -10.445312 7.390625 -10.15625 C 7.984375 -9.863281 8.425781 -9.460938 8.71875 -8.953125 C 9.007812 -8.453125 9.15625 -7.890625 9.15625 -7.265625 C 9.15625 -6.554688 8.957031 -5.925781 8.5625 -5.375 C 8.164062 -4.820312 7.582031 -4.429688 6.8125 -4.203125 L 9.25 0 Z M 3.515625 -5.828125 L 5.109375 -5.828125 C 5.585938 -5.828125 5.941406 -5.941406 6.171875 -6.171875 C 6.410156 -6.398438 6.53125 -6.726562 6.53125 -7.15625 C 6.53125 -7.5625 6.410156 -7.878906 6.171875 -8.109375 C 5.941406 -8.335938 5.585938 -8.453125 5.109375 -8.453125 L 3.515625 -8.453125 Z M 3.515625 -5.828125 "/></g></g><g style="fill:#959085;fill-opacity:1;"><g transform="translate(452.1657, 35.222761)"><path style="stroke:none" d=""/></g></g><g style="fill:#959085;fill-opacity:1;"><g transform="translate(455.363474, 35.222761)"><path style="stroke:none" d="M 7.96875 -7.25 C 7.78125 -7.59375 7.503906 -7.859375 7.140625 -8.046875 C 6.785156 -8.234375 6.367188 -8.328125 5.890625 -8.328125 C 5.054688 -8.328125 4.382812 -8.050781 3.875 -7.5 C 3.375 -6.957031 3.125 -6.226562 3.125 -5.3125 C 3.125 -4.332031 3.382812 -3.566406 3.90625 -3.015625 C 4.4375 -2.472656 5.164062 -2.203125 6.09375 -2.203125 C 6.726562 -2.203125 7.265625 -2.363281 7.703125 -2.6875 C 8.140625 -3.007812 8.457031 -3.472656 8.65625 -4.078125 L 5.390625 -4.078125 L 5.390625 -5.984375 L 11 -5.984375 L 11 -3.578125 C 10.8125 -2.929688 10.488281 -2.332031 10.03125 -1.78125 C 9.570312 -1.226562 8.988281 -0.78125 8.28125 -0.4375 C 7.582031 -0.09375 6.789062 0.078125 5.90625 0.078125 C 4.851562 0.078125 3.914062 -0.148438 3.09375 -0.609375 C 2.28125 -1.066406 1.644531 -1.703125 1.1875 -2.515625 C 0.726562 -3.335938 0.5 -4.269531 0.5 -5.3125 C 0.5 -6.351562 0.726562 -7.285156 1.1875 -8.109375 C 1.644531 -8.929688 2.28125 -9.570312 3.09375 -10.03125 C 3.90625 -10.488281 4.835938 -10.71875 5.890625 -10.71875 C 7.148438 -10.71875 8.21875 -10.410156 9.09375 -9.796875 C 9.96875 -9.179688 10.546875 -8.332031 10.828125 -7.25 Z M 7.96875 -7.25 "/></g></g><g style="fill:#959085;fill-opacity:1;"><g transform="translate(466.857361, 35.222761)"><path style="stroke:none" d="M 3.46875 -10.59375 L 3.46875 -4.25 C 3.46875 -3.625 3.625 -3.140625 3.9375 -2.796875 C 4.25 -2.453125 4.707031 -2.28125 5.3125 -2.28125 C 5.914062 -2.28125 6.378906 -2.453125 6.703125 -2.796875 C 7.023438 -3.140625 7.1875 -3.625 7.1875 -4.25 L 7.1875 -10.59375 L 9.765625 -10.59375 L 9.765625 -4.265625 C 9.765625 -3.328125 9.5625 -2.53125 9.15625 -1.875 C 8.757812 -1.21875 8.21875 -0.722656 7.53125 -0.390625 C 6.851562 -0.0546875 6.097656 0.109375 5.265625 0.109375 C 4.429688 0.109375 3.679688 -0.0507812 3.015625 -0.375 C 2.359375 -0.707031 1.835938 -1.203125 1.453125 -1.859375 C 1.078125 -2.523438 0.890625 -3.328125 0.890625 -4.265625 L 0.890625 -10.59375 Z M 3.46875 -10.59375 "/></g></g><g style="fill:#959085;fill-opacity:1;"><g transform="translate(477.491469, 35.222761)"><path style="stroke:none" d="M 8.5625 -10.59375 L 8.5625 -8.53125 L 5.75 -8.53125 L 5.75 0 L 3.171875 0 L 3.171875 -8.53125 L 0.359375 -8.53125 L 0.359375 -10.59375 Z M 8.5625 -10.59375 "/></g></g><g style="fill:#959085;fill-opacity:1;"><g transform="translate(486.40602, 35.222761)"><path style="stroke:none" d=""/></g></g><g style="fill:#959085;fill-opacity:1;"><g transform="translate(489.603794, 35.222761)"><path style="stroke:none" d="M 10.109375 -10.59375 L 10.109375 0 L 7.53125 0 L 7.53125 -4.359375 L 3.515625 -4.359375 L 3.515625 0 L 0.9375 0 L 0.9375 -10.59375 L 3.515625 -10.59375 L 3.515625 -6.4375 L 7.53125 -6.4375 L 7.53125 -10.59375 Z M 10.109375 -10.59375 "/></g></g><g style="fill:#959085;fill-opacity:1;"><g transform="translate(500.630082, 35.222761)"><path style="stroke:none" d="M 3.515625 -8.53125 L 3.515625 -6.390625 L 6.96875 -6.390625 L 6.96875 -4.390625 L 3.515625 -4.390625 L 3.515625 -2.0625 L 7.421875 -2.0625 L 7.421875 0 L 0.9375 0 L 0.9375 -10.59375 L 7.421875 -10.59375 L 7.421875 -8.53125 Z M 3.515625 -8.53125 "/></g></g><g style="fill:#959085;fill-opacity:1;"><g transform="translate(508.79044, 35.222761)"><path style="stroke:none" d="M 7.53125 -1.875 L 3.578125 -1.875 L 2.9375 0 L 0.234375 0 L 4.078125 -10.59375 L 7.0625 -10.59375 L 10.890625 0 L 8.171875 0 Z M 6.875 -3.859375 L 5.546875 -7.75 L 4.25 -3.859375 Z M 6.875 -3.859375 "/></g></g><g style="fill:#959085;fill-opacity:1;"><g transform="translate(519.907231, 35.222761)"><path style="stroke:none" d="M 3.515625 -2 L 6.890625 -2 L 6.890625 0 L 0.9375 0 L 0.9375 -10.59375 L 3.515625 -10.59375 Z M 3.515625 -2 "/></g></g><g style="fill:#959085;fill-opacity:1;"><g transform="translate(527.102224, 35.222761)"><path style="stroke:none" d="M 8.5625 -10.59375 L 8.5625 -8.53125 L 5.75 -8.53125 L 5.75 0 L 3.171875 0 L 3.171875 -8.53125 L 0.359375 -8.53125 L 0.359375 -10.59375 Z M 8.5625 -10.59375 "/></g></g><g style="fill:#959085;fill-opacity:1;"><g transform="translate(536.016774, 35.222761)"><path style="stroke:none" d="M 10.109375 -10.59375 L 10.109375 0 L 7.53125 0 L 7.53125 -4.359375 L 3.515625 -4.359375 L 3.515625 0 L 0.9375 0 L 0.9375 -10.59375 L 3.515625 -10.59375 L 3.515625 -6.4375 L 7.53125 -6.4375 L 7.53125 -10.59375 Z M 10.109375 -10.59375 "/></g></g><g style="fill:#959085;fill-opacity:1;"><g transform="translate(547.043062, 35.222761)"><path style="stroke:none" d=""/></g></g><g style="fill:#959085;fill-opacity:1;"><g transform="translate(550.240836, 35.222761)"><path style="stroke:none" d="M 7.96875 -7.25 C 7.78125 -7.59375 7.503906 -7.859375 7.140625 -8.046875 C 6.785156 -8.234375 6.367188 -8.328125 5.890625 -8.328125 C 5.054688 -8.328125 4.382812 -8.050781 3.875 -7.5 C 3.375 -6.957031 3.125 -6.226562 3.125 -5.3125 C 3.125 -4.332031 3.382812 -3.566406 3.90625 -3.015625 C 4.4375 -2.472656 5.164062 -2.203125 6.09375 -2.203125 C 6.726562 -2.203125 7.265625 -2.363281 7.703125 -2.6875 C 8.140625 -3.007812 8.457031 -3.472656 8.65625 -4.078125 L 5.390625 -4.078125 L 5.390625 -5.984375 L 11 -5.984375 L 11 -3.578125 C 10.8125 -2.929688 10.488281 -2.332031 10.03125 -1.78125 C 9.570312 -1.226562 8.988281 -0.78125 8.28125 -0.4375 C 7.582031 -0.09375 6.789062 0.078125 5.90625 0.078125 C 4.851562 0.078125 3.914062 -0.148438 3.09375 -0.609375 C 2.28125 -1.066406 1.644531 -1.703125 1.1875 -2.515625 C 0.726562 -3.335938 0.5 -4.269531 0.5 -5.3125 C 0.5 -6.351562 0.726562 -7.285156 1.1875 -8.109375 C 1.644531 -8.929688 2.28125 -9.570312 3.09375 -10.03125 C 3.90625 -10.488281 4.835938 -10.71875 5.890625 -10.71875 C 7.148438 -10.71875 8.21875 -10.410156 9.09375 -9.796875 C 9.96875 -9.179688 10.546875 -8.332031 10.828125 -7.25 Z M 7.96875 -7.25 "/></g></g><g style="fill:#959085;fill-opacity:1;"><g transform="translate(561.734723, 35.222761)"><path style="stroke:none" d="M 3.46875 -10.59375 L 3.46875 -4.25 C 3.46875 -3.625 3.625 -3.140625 3.9375 -2.796875 C 4.25 -2.453125 4.707031 -2.28125 5.3125 -2.28125 C 5.914062 -2.28125 6.378906 -2.453125 6.703125 -2.796875 C 7.023438 -3.140625 7.1875 -3.625 7.1875 -4.25 L 7.1875 -10.59375 L 9.765625 -10.59375 L 9.765625 -4.265625 C 9.765625 -3.328125 9.5625 -2.53125 9.15625 -1.875 C 8.757812 -1.21875 8.21875 -0.722656 7.53125 -0.390625 C 6.851562 -0.0546875 6.097656 0.109375 5.265625 0.109375 C 4.429688 0.109375 3.679688 -0.0507812 3.015625 -0.375 C 2.359375 -0.707031 1.835938 -1.203125 1.453125 -1.859375 C 1.078125 -2.523438 0.890625 -3.328125 0.890625 -4.265625 L 0.890625 -10.59375 Z M 3.46875 -10.59375 "/></g></g><g style="fill:#959085;fill-opacity:1;"><g transform="translate(572.368831, 35.222761)"><path style="stroke:none" d="M 3.515625 -10.59375 L 3.515625 0 L 0.9375 0 L 0.9375 -10.59375 Z M 3.515625 -10.59375 "/></g></g><g style="fill:#959085;fill-opacity:1;"><g transform="translate(576.818565, 35.222761)"><path style="stroke:none" d="M 4.90625 -10.59375 C 6.019531 -10.59375 6.992188 -10.367188 7.828125 -9.921875 C 8.671875 -9.484375 9.316406 -8.863281 9.765625 -8.0625 C 10.222656 -7.269531 10.453125 -6.347656 10.453125 -5.296875 C 10.453125 -4.265625 10.222656 -3.34375 9.765625 -2.53125 C 9.316406 -1.726562 8.671875 -1.101562 7.828125 -0.65625 C 6.984375 -0.21875 6.007812 0 4.90625 0 L 0.9375 0 L 0.9375 -10.59375 Z M 4.734375 -2.234375 C 5.710938 -2.234375 6.472656 -2.5 7.015625 -3.03125 C 7.554688 -3.5625 7.828125 -4.316406 7.828125 -5.296875 C 7.828125 -6.273438 7.554688 -7.035156 7.015625 -7.578125 C 6.472656 -8.117188 5.710938 -8.390625 4.734375 -8.390625 L 3.515625 -8.390625 L 3.515625 -2.234375 Z M 4.734375 -2.234375 "/></g></g><g style="fill:#959085;fill-opacity:1;"><g transform="translate(587.784517, 35.222761)"><path style="stroke:none" d="M 3.515625 -8.53125 L 3.515625 -6.390625 L 6.96875 -6.390625 L 6.96875 -4.390625 L 3.515625 -4.390625 L 3.515625 -2.0625 L 7.421875 -2.0625 L 7.421875 0 L 0.9375 0 L 0.9375 -10.59375 L 7.421875 -10.59375 L 7.421875 -8.53125 Z M 3.515625 -8.53125 "/></g></g><g style="fill:#959085;fill-opacity:1;"><g transform="translate(409.719771, 56.074663)"><path style="stroke:none" d="M 4.765625 0.109375 C 3.992188 0.109375 3.300781 -0.015625 2.6875 -0.265625 C 2.070312 -0.523438 1.582031 -0.898438 1.21875 -1.390625 C 0.851562 -1.878906 0.660156 -2.472656 0.640625 -3.171875 L 3.375 -3.171875 C 3.414062 -2.773438 3.550781 -2.472656 3.78125 -2.265625 C 4.019531 -2.066406 4.320312 -1.96875 4.6875 -1.96875 C 5.070312 -1.96875 5.375 -2.050781 5.59375 -2.21875 C 5.820312 -2.394531 5.9375 -2.640625 5.9375 -2.953125 C 5.9375 -3.210938 5.847656 -3.425781 5.671875 -3.59375 C 5.492188 -3.769531 5.273438 -3.914062 5.015625 -4.03125 C 4.765625 -4.144531 4.398438 -4.269531 3.921875 -4.40625 C 3.234375 -4.613281 2.671875 -4.820312 2.234375 -5.03125 C 1.804688 -5.25 1.4375 -5.5625 1.125 -5.96875 C 0.820312 -6.382812 0.671875 -6.925781 0.671875 -7.59375 C 0.671875 -8.582031 1.023438 -9.351562 1.734375 -9.90625 C 2.453125 -10.46875 3.382812 -10.75 4.53125 -10.75 C 5.695312 -10.75 6.632812 -10.46875 7.34375 -9.90625 C 8.0625 -9.351562 8.445312 -8.578125 8.5 -7.578125 L 5.703125 -7.578125 C 5.679688 -7.921875 5.554688 -8.1875 5.328125 -8.375 C 5.097656 -8.570312 4.800781 -8.671875 4.4375 -8.671875 C 4.125 -8.671875 3.867188 -8.585938 3.671875 -8.421875 C 3.484375 -8.265625 3.390625 -8.03125 3.390625 -7.71875 C 3.390625 -7.375 3.550781 -7.101562 3.875 -6.90625 C 4.195312 -6.71875 4.703125 -6.515625 5.390625 -6.296875 C 6.078125 -6.066406 6.632812 -5.84375 7.0625 -5.625 C 7.488281 -5.414062 7.859375 -5.109375 8.171875 -4.703125 C 8.484375 -4.304688 8.640625 -3.789062 8.640625 -3.15625 C 8.640625 -2.550781 8.484375 -2 8.171875 -1.5 C 7.867188 -1.007812 7.425781 -0.617188 6.84375 -0.328125 C 6.257812 -0.0351562 5.566406 0.109375 4.765625 0.109375 Z M 4.765625 0.109375 "/></g></g><g style="fill:#959085;fill-opacity:1;"><g transform="translate(418.996333, 56.074663)"><path style="stroke:none" d="M 3.515625 -10.59375 L 3.515625 0 L 0.9375 0 L 0.9375 -10.59375 Z M 3.515625 -10.59375 "/></g></g><g style="fill:#959085;fill-opacity:1;"><g transform="translate(423.446066, 56.074663)"><path style="stroke:none" d="M 12.9375 -10.59375 L 12.9375 0 L 10.359375 0 L 10.359375 -6.359375 L 7.984375 0 L 5.90625 0 L 3.515625 -6.375 L 3.515625 0 L 0.9375 0 L 0.9375 -10.59375 L 3.984375 -10.59375 L 6.953125 -3.265625 L 9.90625 -10.59375 Z M 12.9375 -10.59375 "/></g></g><g style="fill:#959085;fill-opacity:1;"><g transform="translate(437.293033, 56.074663)"><path style="stroke:none" d="M 9.015625 -7.1875 C 9.015625 -6.570312 8.875 -6.007812 8.59375 -5.5 C 8.3125 -4.988281 7.878906 -4.578125 7.296875 -4.265625 C 6.710938 -3.953125 5.984375 -3.796875 5.109375 -3.796875 L 3.515625 -3.796875 L 3.515625 0 L 0.9375 0 L 0.9375 -10.59375 L 5.109375 -10.59375 C 5.960938 -10.59375 6.679688 -10.445312 7.265625 -10.15625 C 7.847656 -9.863281 8.285156 -9.460938 8.578125 -8.953125 C 8.867188 -8.441406 9.015625 -7.851562 9.015625 -7.1875 Z M 4.921875 -5.859375 C 5.410156 -5.859375 5.773438 -5.972656 6.015625 -6.203125 C 6.265625 -6.429688 6.390625 -6.757812 6.390625 -7.1875 C 6.390625 -7.601562 6.265625 -7.925781 6.015625 -8.15625 C 5.773438 -8.394531 5.410156 -8.515625 4.921875 -8.515625 L 3.515625 -8.515625 L 3.515625 -5.859375 Z M 4.921875 -5.859375 "/></g></g><g style="fill:#959085;fill-opacity:1;"><g transform="translate(446.70535, 56.074663)"><path style="stroke:none" d="M 3.515625 -2 L 6.890625 -2 L 6.890625 0 L 0.9375 0 L 0.9375 -10.59375 L 3.515625 -10.59375 Z M 3.515625 -2 "/></g></g><g style="fill:#959085;fill-opacity:1;"><g transform="translate(453.900342, 56.074663)"><path style="stroke:none" d="M 3.515625 -10.59375 L 3.515625 0 L 0.9375 0 L 0.9375 -10.59375 Z M 3.515625 -10.59375 "/></g></g><g style="fill:#959085;fill-opacity:1;"><g transform="translate(458.350075, 56.074663)"><path style="stroke:none" d="M 7.828125 -10.59375 L 7.828125 -8.53125 L 3.515625 -8.53125 L 3.515625 -6.296875 L 6.75 -6.296875 L 6.75 -4.28125 L 3.515625 -4.28125 L 3.515625 0 L 0.9375 0 L 0.9375 -10.59375 Z M 7.828125 -10.59375 "/></g></g><g style="fill:#959085;fill-opacity:1;"><g transform="translate(466.600937, 56.074663)"><path style="stroke:none" d="M 3.515625 -10.59375 L 3.515625 0 L 0.9375 0 L 0.9375 -10.59375 Z M 3.515625 -10.59375 "/></g></g><g style="fill:#959085;fill-opacity:1;"><g transform="translate(471.05067, 56.074663)"><path style="stroke:none" d="M 3.515625 -8.53125 L 3.515625 -6.390625 L 6.96875 -6.390625 L 6.96875 -4.390625 L 3.515625 -4.390625 L 3.515625 -2.0625 L 7.421875 -2.0625 L 7.421875 0 L 0.9375 0 L 0.9375 -10.59375 L 7.421875 -10.59375 L 7.421875 -8.53125 Z M 3.515625 -8.53125 "/></g></g><g style="fill:#959085;fill-opacity:1;"><g transform="translate(479.211028, 56.074663)"><path style="stroke:none" d="M 4.90625 -10.59375 C 6.019531 -10.59375 6.992188 -10.367188 7.828125 -9.921875 C 8.671875 -9.484375 9.316406 -8.863281 9.765625 -8.0625 C 10.222656 -7.269531 10.453125 -6.347656 10.453125 -5.296875 C 10.453125 -4.265625 10.222656 -3.34375 9.765625 -2.53125 C 9.316406 -1.726562 8.671875 -1.101562 7.828125 -0.65625 C 6.984375 -0.21875 6.007812 0 4.90625 0 L 0.9375 0 L 0.9375 -10.59375 Z M 4.734375 -2.234375 C 5.710938 -2.234375 6.472656 -2.5 7.015625 -3.03125 C 7.554688 -3.5625 7.828125 -4.316406 7.828125 -5.296875 C 7.828125 -6.273438 7.554688 -7.035156 7.015625 -7.578125 C 6.472656 -8.117188 5.710938 -8.390625 4.734375 -8.390625 L 3.515625 -8.390625 L 3.515625 -2.234375 Z M 4.734375 -2.234375 "/></g></g></g></svg>