<svg xmlns="http://www.w3.org/2000/svg" xmlns:xlink="http://www.w3.org/1999/xlink" width="600" zoomAndPan="magnify" viewBox="0 0 450 74.999997" height="100" preserveAspectRatio="xMidYMid meet" version="1.2"><defs/><g id="ddb369c910"><g style="fill:#959085;fill-opacity:1;"><g transform="translate(62.491777, 51.071511)"><path style="stroke:none" d="M 2.75 -30.84375 C 2.84375 -30.90625 3 -30.984375 3.21875 -31.078125 C 3.445312 -31.179688 3.710938 -31.296875 4.015625 -31.421875 C 4.316406 -31.546875 4.640625 -31.679688 4.984375 -31.828125 C 5.335938 -31.972656 5.691406 -32.113281 6.046875 -32.25 L 8.734375 -33.328125 C 8.929688 -33.410156 9.113281 -33.453125 9.28125 -33.453125 C 9.40625 -33.453125 9.539062 -33.414062 9.6875 -33.34375 C 9.832031 -33.28125 10 -33.15625 10.1875 -32.96875 L 15.53125 -22.59375 L 15.671875 -22.953125 L 17.96875 -27.1875 C 18.257812 -27.707031 18.546875 -28.222656 18.828125 -28.734375 C 19.117188 -29.242188 19.375 -29.695312 19.59375 -30.09375 C 19.820312 -30.5 20.015625 -30.820312 20.171875 -31.0625 C 20.328125 -31.3125 20.421875 -31.4375 20.453125 -31.4375 L 28.390625 -33.4375 C 28.578125 -33.476562 28.726562 -33.5 28.84375 -33.5 C 29.207031 -33.5 29.390625 -33.335938 29.390625 -33.015625 C 29.367188 -32.941406 29.347656 -32.835938 29.328125 -32.703125 C 29.316406 -32.578125 29.273438 -32.4375 29.203125 -32.28125 L 22.390625 -19.65625 C 22.046875 -19.019531 21.703125 -18.382812 21.359375 -17.75 C 21.015625 -17.125 20.675781 -16.53125 20.34375 -15.96875 C 20.019531 -15.40625 19.734375 -14.890625 19.484375 -14.421875 C 19.234375 -13.960938 19.03125 -13.585938 18.875 -13.296875 L 18.703125 -12.53125 L 17.40625 -3.84375 C 17.363281 -3.582031 17.328125 -3.363281 17.296875 -3.1875 C 17.265625 -3.019531 17.222656 -2.878906 17.171875 -2.765625 C 17.117188 -2.660156 17.046875 -2.570312 16.953125 -2.5 C 16.867188 -2.425781 16.753906 -2.347656 16.609375 -2.265625 L 10.03125 1.1875 C 9.78125 1.300781 9.519531 1.394531 9.25 1.46875 C 8.976562 1.550781 8.71875 1.59375 8.46875 1.59375 C 8.207031 1.59375 7.984375 1.535156 7.796875 1.421875 C 7.617188 1.304688 7.53125 1.117188 7.53125 0.859375 L 7.53125 0.765625 C 7.59375 -0.117188 7.703125 -1.140625 7.859375 -2.296875 C 8.023438 -3.460938 8.195312 -4.601562 8.375 -5.71875 L 9.671875 -14.3125 C 9.429688 -14.832031 9.109375 -15.523438 8.703125 -16.390625 C 8.304688 -17.253906 7.875 -18.1875 7.40625 -19.1875 C 6.945312 -20.195312 6.460938 -21.234375 5.953125 -22.296875 C 5.453125 -23.359375 4.984375 -24.363281 4.546875 -25.3125 C 4.109375 -26.269531 3.710938 -27.109375 3.359375 -27.828125 C 3.015625 -28.554688 2.757812 -29.09375 2.59375 -29.4375 C 2.519531 -29.664062 2.484375 -29.898438 2.484375 -30.140625 C 2.484375 -30.285156 2.5 -30.421875 2.53125 -30.546875 C 2.570312 -30.679688 2.644531 -30.78125 2.75 -30.84375 Z M 2.75 -30.84375 "/></g></g><g style="fill:#959085;fill-opacity:1;"><g transform="translate(84.995058, 51.071511)"><path style="stroke:none" d="M 15.515625 1.203125 C 13.335938 1.203125 11.425781 0.847656 9.78125 0.140625 C 8.132812 -0.566406 6.753906 -1.507812 5.640625 -2.6875 C 4.535156 -3.875 3.703125 -5.234375 3.140625 -6.765625 C 2.585938 -8.304688 2.3125 -9.898438 2.3125 -11.546875 C 2.3125 -13.203125 2.582031 -14.773438 3.125 -16.265625 C 3.664062 -17.753906 4.421875 -19.085938 5.390625 -20.265625 C 6.367188 -21.453125 7.535156 -22.441406 8.890625 -23.234375 C 10.242188 -24.023438 11.742188 -24.5625 13.390625 -24.84375 C 13.628906 -24.863281 13.75 -24.914062 13.75 -25 C 13.75 -25.175781 13.726562 -25.335938 13.6875 -25.484375 C 13.65625 -25.628906 13.640625 -25.753906 13.640625 -25.859375 C 13.640625 -26.035156 13.671875 -26.148438 13.734375 -26.203125 C 13.796875 -26.265625 13.863281 -26.296875 13.9375 -26.296875 C 16.882812 -26.296875 19.390625 -25.960938 21.453125 -25.296875 C 23.523438 -24.628906 25.207031 -23.710938 26.5 -22.546875 C 27.800781 -21.390625 28.742188 -20.023438 29.328125 -18.453125 C 29.921875 -16.878906 30.21875 -15.191406 30.21875 -13.390625 C 30.21875 -11.085938 29.832031 -9.03125 29.0625 -7.21875 C 28.289062 -5.414062 27.234375 -3.890625 25.890625 -2.640625 C 24.554688 -1.390625 23 -0.4375 21.21875 0.21875 C 19.4375 0.875 17.535156 1.203125 15.515625 1.203125 Z M 11.234375 -11.8125 C 11.234375 -10.976562 11.320312 -10.148438 11.5 -9.328125 C 11.675781 -8.515625 11.96875 -7.773438 12.375 -7.109375 C 12.78125 -6.441406 13.316406 -5.90625 13.984375 -5.5 C 14.648438 -5.09375 15.476562 -4.890625 16.46875 -4.890625 C 17.175781 -4.921875 17.796875 -5.078125 18.328125 -5.359375 C 18.859375 -5.640625 19.316406 -6.007812 19.703125 -6.46875 C 20.085938 -6.925781 20.40625 -7.441406 20.65625 -8.015625 C 20.914062 -8.585938 21.117188 -9.175781 21.265625 -9.78125 C 21.410156 -10.394531 21.515625 -10.992188 21.578125 -11.578125 C 21.640625 -12.160156 21.671875 -12.691406 21.671875 -13.171875 C 21.671875 -13.972656 21.550781 -14.757812 21.3125 -15.53125 C 21.070312 -16.300781 20.71875 -16.976562 20.25 -17.5625 C 19.789062 -18.15625 19.21875 -18.632812 18.53125 -19 C 17.84375 -19.363281 17.050781 -19.546875 16.15625 -19.546875 C 15.226562 -19.546875 14.445312 -19.269531 13.8125 -18.71875 C 13.1875 -18.175781 12.679688 -17.5 12.296875 -16.6875 C 11.921875 -15.882812 11.648438 -15.039062 11.484375 -14.15625 C 11.316406 -13.269531 11.234375 -12.488281 11.234375 -11.8125 Z M 11.234375 -11.8125 "/></g></g><g style="fill:#959085;fill-opacity:1;"><g transform="translate(115.393141, 51.071511)"><path style="stroke:none" d="M 27.25 -2.875 C 27.207031 -2.363281 27.144531 -2.007812 27.0625 -1.8125 C 26.988281 -1.625 26.820312 -1.5 26.5625 -1.4375 C 25.25 -1.0625 23.878906 -0.6875 22.453125 -0.3125 C 21.023438 0.0625 19.640625 0.5625 18.296875 1.1875 C 18.242188 1.195312 18.171875 1.203125 18.078125 1.203125 C 17.960938 1.203125 17.890625 1.171875 17.859375 1.109375 C 17.835938 1.046875 17.828125 0.976562 17.828125 0.90625 C 17.828125 0.875 17.832031 0.816406 17.84375 0.734375 C 17.851562 0.660156 17.867188 0.519531 17.890625 0.3125 C 17.921875 0.101562 17.960938 -0.179688 18.015625 -0.546875 C 18.078125 -0.921875 18.15625 -1.414062 18.25 -2.03125 C 16.519531 -0.90625 14.984375 -0.0859375 13.640625 0.421875 C 12.304688 0.941406 11.125 1.203125 10.09375 1.203125 C 7.519531 1.203125 5.640625 0.582031 4.453125 -0.65625 C 3.273438 -1.90625 2.6875 -3.765625 2.6875 -6.234375 C 2.6875 -6.679688 2.691406 -7.140625 2.703125 -7.609375 C 2.722656 -8.078125 2.769531 -8.554688 2.84375 -9.046875 C 3.019531 -10.867188 3.164062 -12.429688 3.28125 -13.734375 C 3.40625 -15.046875 3.503906 -16.15625 3.578125 -17.0625 C 3.660156 -17.976562 3.726562 -18.722656 3.78125 -19.296875 C 3.832031 -19.878906 3.878906 -20.363281 3.921875 -20.75 C 3.960938 -21.132812 3.992188 -21.453125 4.015625 -21.703125 C 4.035156 -21.960938 4.0625 -22.210938 4.09375 -22.453125 C 4.15625 -22.953125 4.210938 -23.300781 4.265625 -23.5 C 4.328125 -23.695312 4.503906 -23.828125 4.796875 -23.890625 C 5.515625 -24.035156 6.203125 -24.164062 6.859375 -24.28125 C 7.515625 -24.394531 8.160156 -24.515625 8.796875 -24.640625 C 9.441406 -24.773438 10.097656 -24.921875 10.765625 -25.078125 C 11.429688 -25.234375 12.132812 -25.421875 12.875 -25.640625 C 12.90625 -25.640625 12.9375 -25.640625 12.96875 -25.640625 C 13 -25.648438 13.03125 -25.65625 13.0625 -25.65625 C 13.25 -25.65625 13.34375 -25.59375 13.34375 -25.46875 L 13.34375 -25.421875 C 13.28125 -24.898438 13.222656 -24.40625 13.171875 -23.9375 C 13.128906 -23.476562 13.082031 -23.003906 13.03125 -22.515625 C 12.988281 -22.023438 12.941406 -21.503906 12.890625 -20.953125 C 12.835938 -20.398438 12.769531 -19.753906 12.6875 -19.015625 C 12.613281 -18.285156 12.519531 -17.441406 12.40625 -16.484375 C 12.300781 -15.523438 12.171875 -14.414062 12.015625 -13.15625 C 11.921875 -12.226562 11.828125 -11.300781 11.734375 -10.375 C 11.640625 -9.457031 11.59375 -8.609375 11.59375 -7.828125 C 11.59375 -7.390625 11.625 -6.988281 11.6875 -6.625 C 11.75 -6.269531 11.859375 -5.960938 12.015625 -5.703125 C 12.179688 -5.453125 12.394531 -5.253906 12.65625 -5.109375 C 12.925781 -4.972656 13.269531 -4.90625 13.6875 -4.90625 C 14.007812 -4.90625 14.445312 -4.976562 15 -5.125 C 15.5625 -5.269531 16.117188 -5.523438 16.671875 -5.890625 C 17.222656 -6.253906 17.710938 -6.734375 18.140625 -7.328125 C 18.566406 -7.921875 18.8125 -8.675781 18.875 -9.59375 C 18.976562 -11.113281 19.070312 -12.382812 19.15625 -13.40625 C 19.238281 -14.4375 19.3125 -15.300781 19.375 -16 C 19.4375 -16.707031 19.488281 -17.300781 19.53125 -17.78125 C 19.582031 -18.257812 19.628906 -18.71875 19.671875 -19.15625 C 19.710938 -19.601562 19.75 -20.078125 19.78125 -20.578125 C 19.8125 -21.078125 19.835938 -21.703125 19.859375 -22.453125 C 19.910156 -22.960938 19.96875 -23.3125 20.03125 -23.5 C 20.101562 -23.695312 20.28125 -23.828125 20.5625 -23.890625 C 21.96875 -24.171875 23.398438 -24.453125 24.859375 -24.734375 C 26.328125 -25.023438 27.765625 -25.394531 29.171875 -25.84375 C 29.296875 -25.84375 29.367188 -25.820312 29.390625 -25.78125 C 29.421875 -25.738281 29.4375 -25.679688 29.4375 -25.609375 Z M 27.25 -2.875 "/></g></g><g style="fill:#959085;fill-opacity:1;"><g transform="translate(145.027213, 51.071511)"><path style="stroke:none" d="M 21.71875 -18.84375 C 21.394531 -18.875 21.03125 -18.910156 20.625 -18.953125 C 20.226562 -18.992188 19.804688 -19.015625 19.359375 -19.015625 C 18.679688 -19.015625 17.988281 -18.953125 17.28125 -18.828125 C 16.582031 -18.710938 15.929688 -18.484375 15.328125 -18.140625 C 14.722656 -17.804688 14.203125 -17.34375 13.765625 -16.75 C 13.335938 -16.15625 13.0625 -15.390625 12.9375 -14.453125 C 12.832031 -13.304688 12.742188 -12.363281 12.671875 -11.625 C 12.609375 -10.894531 12.5625 -10.296875 12.53125 -9.828125 C 12.5 -9.359375 12.46875 -8.976562 12.4375 -8.6875 C 12.414062 -8.40625 12.398438 -8.140625 12.390625 -7.890625 C 12.390625 -7.828125 12.375 -7.65625 12.34375 -7.375 C 12.320312 -7.101562 12.285156 -6.78125 12.234375 -6.40625 C 12.191406 -6.039062 12.148438 -5.640625 12.109375 -5.203125 C 12.078125 -4.773438 12.035156 -4.375 11.984375 -4 C 11.941406 -3.632812 11.910156 -3.3125 11.890625 -3.03125 C 11.867188 -2.75 11.859375 -2.582031 11.859375 -2.53125 C 11.859375 -2.40625 11.859375 -2.296875 11.859375 -2.203125 C 11.867188 -2.117188 11.875 -2.039062 11.875 -1.96875 C 11.875 -1.84375 11.816406 -1.738281 11.703125 -1.65625 C 11.585938 -1.570312 11.328125 -1.472656 10.921875 -1.359375 L 4.796875 0.828125 C 4.617188 0.890625 4.390625 0.96875 4.109375 1.0625 C 3.835938 1.15625 3.570312 1.203125 3.3125 1.203125 C 3.09375 1.203125 2.898438 1.144531 2.734375 1.03125 C 2.578125 0.925781 2.5 0.742188 2.5 0.484375 L 4.484375 -22.453125 C 4.535156 -22.960938 4.59375 -23.3125 4.65625 -23.5 C 4.726562 -23.695312 4.90625 -23.828125 5.1875 -23.890625 C 6.59375 -24.171875 8.039062 -24.453125 9.53125 -24.734375 C 11.03125 -25.023438 12.484375 -25.394531 13.890625 -25.84375 C 14.015625 -25.84375 14.085938 -25.820312 14.109375 -25.78125 C 14.128906 -25.738281 14.140625 -25.679688 14.140625 -25.609375 C 14.140625 -25.578125 14.132812 -25.53125 14.125 -25.46875 C 14.125 -25.40625 14.101562 -25.265625 14.0625 -25.046875 C 14.03125 -24.835938 13.976562 -24.507812 13.90625 -24.0625 C 13.832031 -23.625 13.734375 -23.015625 13.609375 -22.234375 C 14.328125 -22.785156 15.113281 -23.289062 15.96875 -23.75 C 16.820312 -24.21875 17.679688 -24.617188 18.546875 -24.953125 C 19.410156 -25.285156 20.242188 -25.546875 21.046875 -25.734375 C 21.847656 -25.929688 22.550781 -26.03125 23.15625 -26.03125 Z M 21.71875 -18.84375 "/></g></g><g style="fill:#959085;fill-opacity:1;"><g transform="translate(165.956278, 51.071511)"><path style="stroke:none" d="M 26.28125 -19.03125 C 26.21875 -18.800781 26.097656 -18.46875 25.921875 -18.03125 C 25.753906 -17.601562 25.5625 -17.113281 25.34375 -16.5625 C 25.132812 -16.019531 24.898438 -15.441406 24.640625 -14.828125 C 24.378906 -14.222656 24.125 -13.625 23.875 -13.03125 C 23.769531 -12.769531 23.640625 -12.578125 23.484375 -12.453125 C 23.335938 -12.328125 23.039062 -12.257812 22.59375 -12.25 L 15.84375 -12.140625 L 15 -1.859375 C 14.988281 -1.710938 14.953125 -1.570312 14.890625 -1.4375 C 14.828125 -1.3125 14.734375 -1.210938 14.609375 -1.140625 C 14.566406 -1.109375 14.382812 -1.015625 14.0625 -0.859375 C 13.75 -0.710938 13.351562 -0.539062 12.875 -0.34375 C 12.394531 -0.144531 11.867188 0.0664062 11.296875 0.296875 C 10.722656 0.523438 10.160156 0.738281 9.609375 0.9375 C 9.054688 1.132812 8.546875 1.296875 8.078125 1.421875 C 7.617188 1.554688 7.257812 1.625 7 1.625 C 6.6875 1.625 6.398438 1.566406 6.140625 1.453125 C 5.890625 1.335938 5.765625 1.097656 5.765625 0.734375 C 5.753906 -0.0351562 5.773438 -0.882812 5.828125 -1.8125 C 5.878906 -2.75 5.941406 -3.695312 6.015625 -4.65625 C 6.097656 -5.625 6.179688 -6.578125 6.265625 -7.515625 C 6.359375 -8.453125 6.4375 -9.304688 6.5 -10.078125 L 6.671875 -12.015625 C 5.367188 -12.015625 4.441406 -12.046875 3.890625 -12.109375 C 3.335938 -12.179688 3.0625 -12.367188 3.0625 -12.671875 C 3.0625 -12.867188 3.175781 -13.128906 3.40625 -13.453125 C 3.726562 -13.898438 4.09375 -14.4375 4.5 -15.0625 C 4.914062 -15.695312 5.3125 -16.316406 5.6875 -16.921875 C 6.0625 -17.523438 6.390625 -18.054688 6.671875 -18.515625 C 6.960938 -18.984375 7.144531 -19.269531 7.21875 -19.375 L 7.671875 -25.75 C 7.367188 -25.75 7.109375 -25.742188 6.890625 -25.734375 C 6.679688 -25.722656 6.488281 -25.710938 6.3125 -25.703125 C 6.132812 -25.703125 5.96875 -25.695312 5.8125 -25.6875 C 5.65625 -25.675781 5.492188 -25.671875 5.328125 -25.671875 C 4.585938 -25.671875 4.054688 -25.710938 3.734375 -25.796875 C 3.421875 -25.890625 3.265625 -26.050781 3.265625 -26.28125 C 3.265625 -26.382812 3.359375 -26.609375 3.546875 -26.953125 C 3.734375 -27.296875 3.957031 -27.6875 4.21875 -28.125 C 4.488281 -28.5625 4.78125 -29.019531 5.09375 -29.5 C 5.414062 -29.988281 5.703125 -30.441406 5.953125 -30.859375 L 7.34375 -33.234375 L 17.875 -33.59375 C 19.226562 -33.644531 20.578125 -33.695312 21.921875 -33.75 C 23.265625 -33.800781 24.503906 -33.847656 25.640625 -33.890625 C 26.773438 -33.941406 27.75 -33.984375 28.5625 -34.015625 C 29.382812 -34.054688 29.957031 -34.085938 30.28125 -34.109375 C 30.300781 -34.109375 30.34375 -34.101562 30.40625 -34.09375 C 30.476562 -34.082031 30.550781 -34.054688 30.625 -34.015625 C 30.707031 -33.984375 30.78125 -33.921875 30.84375 -33.828125 C 30.914062 -33.734375 30.953125 -33.601562 30.953125 -33.4375 C 30.953125 -33.34375 30.84375 -33.03125 30.625 -32.5 C 30.414062 -31.976562 30.109375 -31.203125 29.703125 -30.171875 L 28.6875 -27.484375 C 28.582031 -27.222656 28.457031 -27.019531 28.3125 -26.875 C 28.175781 -26.738281 27.882812 -26.664062 27.4375 -26.65625 C 26.914062 -26.632812 26.382812 -26.609375 25.84375 -26.578125 C 25.300781 -26.546875 24.742188 -26.515625 24.171875 -26.484375 L 17.140625 -26.140625 C 17.046875 -25.535156 16.976562 -25.085938 16.9375 -24.796875 C 16.894531 -24.503906 16.867188 -24.257812 16.859375 -24.0625 C 16.859375 -23.875 16.859375 -23.679688 16.859375 -23.484375 C 16.859375 -23.296875 16.847656 -22.992188 16.828125 -22.578125 C 16.816406 -22.285156 16.796875 -22.035156 16.765625 -21.828125 C 16.742188 -21.628906 16.722656 -21.429688 16.703125 -21.234375 C 16.679688 -21.046875 16.660156 -20.84375 16.640625 -20.625 C 16.617188 -20.414062 16.597656 -20.148438 16.578125 -19.828125 C 17.597656 -19.847656 18.597656 -19.875 19.578125 -19.90625 C 20.554688 -19.9375 21.457031 -19.96875 22.28125 -20 C 23.113281 -20.03125 23.828125 -20.054688 24.421875 -20.078125 C 25.023438 -20.109375 25.453125 -20.125 25.703125 -20.125 C 25.828125 -20.125 25.960938 -20.078125 26.109375 -19.984375 C 26.265625 -19.890625 26.34375 -19.710938 26.34375 -19.453125 C 26.34375 -19.328125 26.320312 -19.1875 26.28125 -19.03125 Z M 26.28125 -19.03125 "/></g></g><g style="fill:#959085;fill-opacity:1;"><g transform="translate(193.622457, 51.071511)"><path style="stroke:none" d="M 3.375 -9.8125 C 3.582031 -11.925781 3.785156 -14.019531 3.984375 -16.09375 C 4.179688 -18.164062 4.359375 -20.285156 4.515625 -22.453125 C 4.546875 -22.960938 4.59375 -23.3125 4.65625 -23.5 C 4.726562 -23.695312 4.90625 -23.828125 5.1875 -23.890625 C 6.5 -24.160156 7.875 -24.4375 9.3125 -24.71875 C 10.75 -25 12.132812 -25.363281 13.46875 -25.8125 C 13.519531 -25.832031 13.59375 -25.84375 13.6875 -25.84375 C 13.851562 -25.84375 13.9375 -25.78125 13.9375 -25.65625 L 11.859375 -3.109375 C 11.804688 -2.597656 11.75 -2.242188 11.6875 -2.046875 C 11.625 -1.859375 11.457031 -1.734375 11.1875 -1.671875 C 9.875 -1.265625 8.546875 -0.8125 7.203125 -0.3125 C 5.859375 0.175781 4.4375 0.675781 2.9375 1.1875 C 2.894531 1.195312 2.828125 1.203125 2.734375 1.203125 C 2.566406 1.203125 2.484375 1.125 2.484375 0.96875 C 2.484375 0.957031 2.492188 0.75 2.515625 0.34375 C 2.546875 -0.0507812 2.585938 -0.566406 2.640625 -1.203125 C 2.703125 -1.835938 2.765625 -2.546875 2.828125 -3.328125 C 2.890625 -4.117188 2.953125 -4.90625 3.015625 -5.6875 C 3.085938 -6.476562 3.15625 -7.234375 3.21875 -7.953125 C 3.28125 -8.679688 3.332031 -9.300781 3.375 -9.8125 Z M 5.125 -28.296875 C 5.164062 -28.960938 5.195312 -29.472656 5.21875 -29.828125 C 5.238281 -30.179688 5.253906 -30.445312 5.265625 -30.625 C 5.285156 -30.800781 5.296875 -30.910156 5.296875 -30.953125 C 5.296875 -31.003906 5.300781 -31.039062 5.3125 -31.0625 C 5.320312 -31.082031 5.328125 -31.128906 5.328125 -31.203125 C 5.335938 -31.273438 5.347656 -31.421875 5.359375 -31.640625 C 5.378906 -31.867188 5.40625 -32.195312 5.4375 -32.625 C 5.46875 -33.0625 5.515625 -33.65625 5.578125 -34.40625 C 5.609375 -34.914062 5.65625 -35.265625 5.71875 -35.453125 C 5.789062 -35.648438 5.96875 -35.78125 6.25 -35.84375 C 7.5625 -36.101562 8.9375 -36.375 10.375 -36.65625 C 11.8125 -36.945312 13.203125 -37.316406 14.546875 -37.765625 C 14.585938 -37.785156 14.65625 -37.796875 14.75 -37.796875 C 14.789062 -37.703125 14.851562 -37.640625 14.9375 -37.609375 L 15 -37.5625 L 14.5 -31.21875 C 14.445312 -30.707031 14.382812 -30.347656 14.3125 -30.140625 C 14.25 -29.941406 14.085938 -29.820312 13.828125 -29.78125 C 12.515625 -29.53125 11.1875 -29.257812 9.84375 -28.96875 C 8.5 -28.675781 7.078125 -28.382812 5.578125 -28.09375 C 5.535156 -28.070312 5.46875 -28.0625 5.375 -28.0625 C 5.207031 -28.0625 5.125 -28.140625 5.125 -28.296875 Z M 5.125 -28.296875 "/></g></g><g style="fill:#959085;fill-opacity:1;"><g transform="translate(207.791249, 51.071511)"><path style="stroke:none" d="M 15.265625 -17.859375 C 15.046875 -16.234375 14.835938 -14.613281 14.640625 -13 C 14.453125 -11.382812 14.332031 -9.875 14.28125 -8.46875 C 14.28125 -7.875 14.328125 -7.375 14.421875 -6.96875 C 14.515625 -6.570312 14.648438 -6.253906 14.828125 -6.015625 C 15.003906 -5.785156 15.21875 -5.617188 15.46875 -5.515625 C 15.71875 -5.421875 15.992188 -5.375 16.296875 -5.375 C 16.796875 -5.375 17.335938 -5.445312 17.921875 -5.59375 C 18.503906 -5.738281 19.09375 -5.925781 19.6875 -6.15625 C 19.863281 -6.238281 20.019531 -6.296875 20.15625 -6.328125 C 20.289062 -6.367188 20.40625 -6.390625 20.5 -6.390625 C 20.644531 -6.390625 20.742188 -6.316406 20.796875 -6.171875 C 20.859375 -6.035156 20.914062 -5.796875 20.96875 -5.453125 C 21.019531 -5.109375 21.097656 -4.640625 21.203125 -4.046875 C 21.316406 -3.460938 21.5 -2.722656 21.75 -1.828125 C 21.757812 -1.753906 21.765625 -1.6875 21.765625 -1.625 C 21.773438 -1.570312 21.78125 -1.523438 21.78125 -1.484375 C 21.78125 -1.265625 21.695312 -1.109375 21.53125 -1.015625 C 21.375 -0.921875 21.113281 -0.8125 20.75 -0.6875 C 20.113281 -0.476562 19.441406 -0.257812 18.734375 -0.03125 C 18.035156 0.1875 17.34375 0.390625 16.65625 0.578125 C 15.96875 0.765625 15.304688 0.914062 14.671875 1.03125 C 14.046875 1.144531 13.492188 1.203125 13.015625 1.203125 C 10.429688 1.203125 8.550781 0.5625 7.375 -0.71875 C 6.195312 -2 5.609375 -3.953125 5.609375 -6.578125 C 5.609375 -7.023438 5.625 -7.484375 5.65625 -7.953125 C 5.6875 -8.421875 5.722656 -8.910156 5.765625 -9.421875 C 5.921875 -10.960938 6.054688 -12.425781 6.171875 -13.8125 C 6.285156 -15.195312 6.40625 -16.519531 6.53125 -17.78125 L 4.09375 -17.78125 C 3.257812 -17.78125 2.65625 -17.8125 2.28125 -17.875 C 1.914062 -17.945312 1.734375 -18.09375 1.734375 -18.3125 C 1.734375 -18.375 1.8125 -18.539062 1.96875 -18.8125 C 2.125 -19.082031 2.320312 -19.40625 2.5625 -19.78125 C 2.800781 -20.164062 3.054688 -20.570312 3.328125 -21 C 3.609375 -21.4375 3.875 -21.84375 4.125 -22.21875 C 4.382812 -22.59375 4.609375 -22.921875 4.796875 -23.203125 C 4.984375 -23.484375 5.097656 -23.65625 5.140625 -23.71875 L 6.78125 -23.71875 C 6.925781 -24.882812 7.039062 -25.863281 7.125 -26.65625 C 7.207031 -27.457031 7.273438 -28.117188 7.328125 -28.640625 C 7.378906 -29.171875 7.425781 -29.578125 7.46875 -29.859375 C 7.519531 -30.140625 7.570312 -30.347656 7.625 -30.484375 C 7.675781 -30.628906 7.742188 -30.71875 7.828125 -30.75 C 7.921875 -30.789062 8.035156 -30.828125 8.171875 -30.859375 C 8.867188 -31.003906 9.539062 -31.132812 10.1875 -31.25 C 10.832031 -31.363281 11.476562 -31.484375 12.125 -31.609375 C 12.78125 -31.734375 13.441406 -31.875 14.109375 -32.03125 C 14.785156 -32.195312 15.484375 -32.390625 16.203125 -32.609375 C 16.253906 -32.609375 16.285156 -32.609375 16.296875 -32.609375 C 16.316406 -32.617188 16.347656 -32.625 16.390625 -32.625 C 16.578125 -32.625 16.671875 -32.5625 16.671875 -32.4375 L 16.671875 -32.390625 C 16.597656 -31.546875 16.476562 -30.363281 16.3125 -28.84375 C 16.144531 -27.332031 15.960938 -25.625 15.765625 -23.71875 L 21.96875 -23.71875 C 22.09375 -23.71875 22.210938 -23.671875 22.328125 -23.578125 C 22.441406 -23.492188 22.5 -23.351562 22.5 -23.15625 C 22.5 -23.082031 22.40625 -22.804688 22.21875 -22.328125 C 22.039062 -21.847656 21.78125 -21.222656 21.4375 -20.453125 L 20.609375 -18.578125 C 20.503906 -18.335938 20.390625 -18.164062 20.265625 -18.0625 C 20.148438 -17.957031 19.914062 -17.890625 19.5625 -17.859375 Z M 15.265625 -17.859375 "/></g></g><g style="fill:#959085;fill-opacity:1;"><g transform="translate(228.882357, 51.071511)"><path style="stroke:none" d="M 22.953125 -31.03125 C 23.066406 -31.539062 23.171875 -31.910156 23.265625 -32.140625 C 23.359375 -32.367188 23.5625 -32.523438 23.875 -32.609375 L 29.875 -34.015625 C 30.050781 -34.078125 30.25 -34.109375 30.46875 -34.109375 C 30.664062 -34.109375 30.8125 -34.035156 30.90625 -33.890625 C 31 -33.753906 31.046875 -33.492188 31.046875 -33.109375 C 30.953125 -32.742188 30.875 -32.175781 30.8125 -31.40625 C 30.757812 -30.644531 30.71875 -29.804688 30.6875 -28.890625 C 30.65625 -27.984375 30.628906 -27.070312 30.609375 -26.15625 C 30.597656 -25.238281 30.59375 -24.4375 30.59375 -23.75 L 30.59375 -22.484375 C 30.59375 -21.523438 30.582031 -20.484375 30.5625 -19.359375 C 30.550781 -18.234375 30.53125 -17.085938 30.5 -15.921875 C 30.476562 -14.765625 30.453125 -13.625 30.421875 -12.5 C 30.390625 -11.375 30.359375 -10.316406 30.328125 -9.328125 L 30.1875 -5.375 C 30.175781 -5.289062 30.171875 -5.21875 30.171875 -5.15625 C 30.171875 -5.101562 30.171875 -5.046875 30.171875 -4.984375 L 30.171875 -4.625 C 30.171875 -4.363281 30.171875 -4.144531 30.171875 -3.96875 C 30.179688 -3.789062 30.1875 -3.632812 30.1875 -3.5 C 30.1875 -3.34375 30.175781 -3.203125 30.15625 -3.078125 C 30.132812 -2.953125 30.078125 -2.832031 29.984375 -2.71875 C 29.890625 -2.601562 29.757812 -2.484375 29.59375 -2.359375 C 29.4375 -2.234375 29.21875 -2.082031 28.9375 -1.90625 C 28.789062 -1.789062 28.535156 -1.628906 28.171875 -1.421875 C 27.816406 -1.210938 27.421875 -0.976562 26.984375 -0.71875 C 26.554688 -0.457031 26.113281 -0.1875 25.65625 0.09375 C 25.195312 0.375 24.769531 0.625 24.375 0.84375 C 23.988281 1.070312 23.675781 1.253906 23.4375 1.390625 C 23.195312 1.523438 23.078125 1.59375 23.078125 1.59375 L 12.34375 -14.9375 L 11.375 -1.390625 C 11.351562 -1.265625 11.320312 -1.128906 11.28125 -0.984375 C 11.25 -0.847656 11.144531 -0.742188 10.96875 -0.671875 C 10.832031 -0.609375 10.59375 -0.507812 10.25 -0.375 C 9.914062 -0.25 9.519531 -0.101562 9.0625 0.0625 C 8.601562 0.238281 8.125 0.414062 7.625 0.59375 C 7.125 0.769531 6.648438 0.929688 6.203125 1.078125 C 5.753906 1.222656 5.351562 1.34375 5 1.4375 C 4.65625 1.53125 4.425781 1.578125 4.3125 1.578125 C 4.070312 1.578125 3.875 1.515625 3.71875 1.390625 C 3.570312 1.265625 3.5 1.039062 3.5 0.71875 C 3.65625 -1.207031 3.832031 -3.304688 4.03125 -5.578125 C 4.226562 -7.859375 4.421875 -10.195312 4.609375 -12.59375 C 4.796875 -14.988281 4.96875 -17.378906 5.125 -19.765625 C 5.289062 -22.148438 5.425781 -24.414062 5.53125 -26.5625 C 5.53125 -26.625 5.429688 -26.828125 5.234375 -27.171875 C 5.046875 -27.515625 4.832031 -27.890625 4.59375 -28.296875 C 4.351562 -28.710938 4.132812 -29.101562 3.9375 -29.46875 C 3.75 -29.832031 3.65625 -30.054688 3.65625 -30.140625 C 3.65625 -30.253906 3.710938 -30.359375 3.828125 -30.453125 C 3.941406 -30.546875 4.132812 -30.664062 4.40625 -30.8125 L 10.578125 -34.3125 C 10.628906 -34.3125 10.695312 -34.316406 10.78125 -34.328125 C 10.863281 -34.347656 10.9375 -34.359375 11 -34.359375 C 11.164062 -34.359375 11.296875 -34.335938 11.390625 -34.296875 C 11.492188 -34.265625 11.601562 -34.148438 11.71875 -33.953125 L 22.953125 -13.6875 Z M 22.953125 -31.03125 "/></g></g><g style="fill:#959085;fill-opacity:1;"><g transform="translate(260.461165, 51.071511)"><path style="stroke:none" d="M 26.421875 -4.65625 C 26.398438 -4.59375 26.390625 -4.535156 26.390625 -4.484375 C 26.390625 -4.429688 26.390625 -4.378906 26.390625 -4.328125 C 26.390625 -3.941406 26.453125 -3.617188 26.578125 -3.359375 C 26.703125 -3.109375 26.835938 -2.898438 26.984375 -2.734375 C 27.128906 -2.578125 27.265625 -2.445312 27.390625 -2.34375 C 27.515625 -2.25 27.578125 -2.160156 27.578125 -2.078125 C 27.578125 -1.867188 27.347656 -1.671875 26.890625 -1.484375 L 20.65625 1.1875 C 20.632812 1.195312 20.582031 1.203125 20.5 1.203125 C 20.375 1.203125 20.25 1.09375 20.125 0.875 C 20 0.664062 19.878906 0.394531 19.765625 0.0625 C 19.648438 -0.269531 19.539062 -0.625 19.4375 -1 C 19.332031 -1.382812 19.242188 -1.738281 19.171875 -2.0625 C 18.203125 -0.9375 17.148438 -0.113281 16.015625 0.40625 C 14.890625 0.9375 13.773438 1.203125 12.671875 1.203125 C 11.367188 1.203125 10.097656 0.914062 8.859375 0.34375 C 7.628906 -0.226562 6.535156 -1.039062 5.578125 -2.09375 C 4.617188 -3.15625 3.847656 -4.429688 3.265625 -5.921875 C 2.691406 -7.421875 2.40625 -9.101562 2.40625 -10.96875 C 2.40625 -13.175781 2.722656 -15.191406 3.359375 -17.015625 C 4.003906 -18.835938 4.875 -20.40625 5.96875 -21.71875 C 7.070312 -23.03125 8.351562 -24.046875 9.8125 -24.765625 C 11.269531 -25.484375 12.816406 -25.84375 14.453125 -25.84375 C 15.609375 -25.84375 16.703125 -25.601562 17.734375 -25.125 C 18.765625 -24.65625 19.742188 -24.050781 20.671875 -23.3125 C 20.765625 -23.78125 20.816406 -24.148438 20.828125 -24.421875 C 20.847656 -24.703125 20.882812 -24.921875 20.9375 -25.078125 C 21 -25.234375 21.101562 -25.335938 21.25 -25.390625 C 21.40625 -25.441406 21.660156 -25.484375 22.015625 -25.515625 C 23.128906 -25.671875 24.238281 -25.8125 25.34375 -25.9375 C 26.445312 -26.070312 27.601562 -26.171875 28.8125 -26.234375 Z M 19.5 -13.390625 C 19.65625 -14.265625 19.757812 -15.09375 19.8125 -15.875 C 19.863281 -16.65625 19.90625 -17.367188 19.9375 -18.015625 C 19.6875 -18.203125 19.414062 -18.394531 19.125 -18.59375 C 18.84375 -18.789062 18.535156 -18.976562 18.203125 -19.15625 C 17.878906 -19.332031 17.535156 -19.472656 17.171875 -19.578125 C 16.804688 -19.691406 16.421875 -19.75 16.015625 -19.75 C 15.179688 -19.75 14.484375 -19.476562 13.921875 -18.9375 C 13.359375 -18.394531 12.90625 -17.726562 12.5625 -16.9375 C 12.21875 -16.15625 11.96875 -15.320312 11.8125 -14.4375 C 11.664062 -13.5625 11.59375 -12.785156 11.59375 -12.109375 C 11.59375 -9.671875 11.910156 -7.882812 12.546875 -6.75 C 13.191406 -5.613281 14.085938 -5.046875 15.234375 -5.046875 C 15.703125 -5.046875 16.21875 -5.175781 16.78125 -5.4375 C 17.351562 -5.695312 17.9375 -6.0625 18.53125 -6.53125 Z M 19.5 -13.390625 "/></g></g><g style="fill:#959085;fill-opacity:1;"><g transform="translate(289.354387, 51.071511)"><path style="stroke:none" d="M 15.265625 -17.859375 C 15.046875 -16.234375 14.835938 -14.613281 14.640625 -13 C 14.453125 -11.382812 14.332031 -9.875 14.28125 -8.46875 C 14.28125 -7.875 14.328125 -7.375 14.421875 -6.96875 C 14.515625 -6.570312 14.648438 -6.253906 14.828125 -6.015625 C 15.003906 -5.785156 15.21875 -5.617188 15.46875 -5.515625 C 15.71875 -5.421875 15.992188 -5.375 16.296875 -5.375 C 16.796875 -5.375 17.335938 -5.445312 17.921875 -5.59375 C 18.503906 -5.738281 19.09375 -5.925781 19.6875 -6.15625 C 19.863281 -6.238281 20.019531 -6.296875 20.15625 -6.328125 C 20.289062 -6.367188 20.40625 -6.390625 20.5 -6.390625 C 20.644531 -6.390625 20.742188 -6.316406 20.796875 -6.171875 C 20.859375 -6.035156 20.914062 -5.796875 20.96875 -5.453125 C 21.019531 -5.109375 21.097656 -4.640625 21.203125 -4.046875 C 21.316406 -3.460938 21.5 -2.722656 21.75 -1.828125 C 21.757812 -1.753906 21.765625 -1.6875 21.765625 -1.625 C 21.773438 -1.570312 21.78125 -1.523438 21.78125 -1.484375 C 21.78125 -1.265625 21.695312 -1.109375 21.53125 -1.015625 C 21.375 -0.921875 21.113281 -0.8125 20.75 -0.6875 C 20.113281 -0.476562 19.441406 -0.257812 18.734375 -0.03125 C 18.035156 0.1875 17.34375 0.390625 16.65625 0.578125 C 15.96875 0.765625 15.304688 0.914062 14.671875 1.03125 C 14.046875 1.144531 13.492188 1.203125 13.015625 1.203125 C 10.429688 1.203125 8.550781 0.5625 7.375 -0.71875 C 6.195312 -2 5.609375 -3.953125 5.609375 -6.578125 C 5.609375 -7.023438 5.625 -7.484375 5.65625 -7.953125 C 5.6875 -8.421875 5.722656 -8.910156 5.765625 -9.421875 C 5.921875 -10.960938 6.054688 -12.425781 6.171875 -13.8125 C 6.285156 -15.195312 6.40625 -16.519531 6.53125 -17.78125 L 4.09375 -17.78125 C 3.257812 -17.78125 2.65625 -17.8125 2.28125 -17.875 C 1.914062 -17.945312 1.734375 -18.09375 1.734375 -18.3125 C 1.734375 -18.375 1.8125 -18.539062 1.96875 -18.8125 C 2.125 -19.082031 2.320312 -19.40625 2.5625 -19.78125 C 2.800781 -20.164062 3.054688 -20.570312 3.328125 -21 C 3.609375 -21.4375 3.875 -21.84375 4.125 -22.21875 C 4.382812 -22.59375 4.609375 -22.921875 4.796875 -23.203125 C 4.984375 -23.484375 5.097656 -23.65625 5.140625 -23.71875 L 6.78125 -23.71875 C 6.925781 -24.882812 7.039062 -25.863281 7.125 -26.65625 C 7.207031 -27.457031 7.273438 -28.117188 7.328125 -28.640625 C 7.378906 -29.171875 7.425781 -29.578125 7.46875 -29.859375 C 7.519531 -30.140625 7.570312 -30.347656 7.625 -30.484375 C 7.675781 -30.628906 7.742188 -30.71875 7.828125 -30.75 C 7.921875 -30.789062 8.035156 -30.828125 8.171875 -30.859375 C 8.867188 -31.003906 9.539062 -31.132812 10.1875 -31.25 C 10.832031 -31.363281 11.476562 -31.484375 12.125 -31.609375 C 12.78125 -31.734375 13.441406 -31.875 14.109375 -32.03125 C 14.785156 -32.195312 15.484375 -32.390625 16.203125 -32.609375 C 16.253906 -32.609375 16.285156 -32.609375 16.296875 -32.609375 C 16.316406 -32.617188 16.347656 -32.625 16.390625 -32.625 C 16.578125 -32.625 16.671875 -32.5625 16.671875 -32.4375 L 16.671875 -32.390625 C 16.597656 -31.546875 16.476562 -30.363281 16.3125 -28.84375 C 16.144531 -27.332031 15.960938 -25.625 15.765625 -23.71875 L 21.96875 -23.71875 C 22.09375 -23.71875 22.210938 -23.671875 22.328125 -23.578125 C 22.441406 -23.492188 22.5 -23.351562 22.5 -23.15625 C 22.5 -23.082031 22.40625 -22.804688 22.21875 -22.328125 C 22.039062 -21.847656 21.78125 -21.222656 21.4375 -20.453125 L 20.609375 -18.578125 C 20.503906 -18.335938 20.390625 -18.164062 20.265625 -18.0625 C 20.148438 -17.957031 19.914062 -17.890625 19.5625 -17.859375 Z M 15.265625 -17.859375 "/></g></g><g style="fill:#959085;fill-opacity:1;"><g transform="translate(310.978011, 51.071511)"><path style="stroke:none" d="M 27.25 -2.875 C 27.207031 -2.363281 27.144531 -2.007812 27.0625 -1.8125 C 26.988281 -1.625 26.820312 -1.5 26.5625 -1.4375 C 25.25 -1.0625 23.878906 -0.6875 22.453125 -0.3125 C 21.023438 0.0625 19.640625 0.5625 18.296875 1.1875 C 18.242188 1.195312 18.171875 1.203125 18.078125 1.203125 C 17.960938 1.203125 17.890625 1.171875 17.859375 1.109375 C 17.835938 1.046875 17.828125 0.976562 17.828125 0.90625 C 17.828125 0.875 17.832031 0.816406 17.84375 0.734375 C 17.851562 0.660156 17.867188 0.519531 17.890625 0.3125 C 17.921875 0.101562 17.960938 -0.179688 18.015625 -0.546875 C 18.078125 -0.921875 18.15625 -1.414062 18.25 -2.03125 C 16.519531 -0.90625 14.984375 -0.0859375 13.640625 0.421875 C 12.304688 0.941406 11.125 1.203125 10.09375 1.203125 C 7.519531 1.203125 5.640625 0.582031 4.453125 -0.65625 C 3.273438 -1.90625 2.6875 -3.765625 2.6875 -6.234375 C 2.6875 -6.679688 2.691406 -7.140625 2.703125 -7.609375 C 2.722656 -8.078125 2.769531 -8.554688 2.84375 -9.046875 C 3.019531 -10.867188 3.164062 -12.429688 3.28125 -13.734375 C 3.40625 -15.046875 3.503906 -16.15625 3.578125 -17.0625 C 3.660156 -17.976562 3.726562 -18.722656 3.78125 -19.296875 C 3.832031 -19.878906 3.878906 -20.363281 3.921875 -20.75 C 3.960938 -21.132812 3.992188 -21.453125 4.015625 -21.703125 C 4.035156 -21.960938 4.0625 -22.210938 4.09375 -22.453125 C 4.15625 -22.953125 4.210938 -23.300781 4.265625 -23.5 C 4.328125 -23.695312 4.503906 -23.828125 4.796875 -23.890625 C 5.515625 -24.035156 6.203125 -24.164062 6.859375 -24.28125 C 7.515625 -24.394531 8.160156 -24.515625 8.796875 -24.640625 C 9.441406 -24.773438 10.097656 -24.921875 10.765625 -25.078125 C 11.429688 -25.234375 12.132812 -25.421875 12.875 -25.640625 C 12.90625 -25.640625 12.9375 -25.640625 12.96875 -25.640625 C 13 -25.648438 13.03125 -25.65625 13.0625 -25.65625 C 13.25 -25.65625 13.34375 -25.59375 13.34375 -25.46875 L 13.34375 -25.421875 C 13.28125 -24.898438 13.222656 -24.40625 13.171875 -23.9375 C 13.128906 -23.476562 13.082031 -23.003906 13.03125 -22.515625 C 12.988281 -22.023438 12.941406 -21.503906 12.890625 -20.953125 C 12.835938 -20.398438 12.769531 -19.753906 12.6875 -19.015625 C 12.613281 -18.285156 12.519531 -17.441406 12.40625 -16.484375 C 12.300781 -15.523438 12.171875 -14.414062 12.015625 -13.15625 C 11.921875 -12.226562 11.828125 -11.300781 11.734375 -10.375 C 11.640625 -9.457031 11.59375 -8.609375 11.59375 -7.828125 C 11.59375 -7.390625 11.625 -6.988281 11.6875 -6.625 C 11.75 -6.269531 11.859375 -5.960938 12.015625 -5.703125 C 12.179688 -5.453125 12.394531 -5.253906 12.65625 -5.109375 C 12.925781 -4.972656 13.269531 -4.90625 13.6875 -4.90625 C 14.007812 -4.90625 14.445312 -4.976562 15 -5.125 C 15.5625 -5.269531 16.117188 -5.523438 16.671875 -5.890625 C 17.222656 -6.253906 17.710938 -6.734375 18.140625 -7.328125 C 18.566406 -7.921875 18.8125 -8.675781 18.875 -9.59375 C 18.976562 -11.113281 19.070312 -12.382812 19.15625 -13.40625 C 19.238281 -14.4375 19.3125 -15.300781 19.375 -16 C 19.4375 -16.707031 19.488281 -17.300781 19.53125 -17.78125 C 19.582031 -18.257812 19.628906 -18.71875 19.671875 -19.15625 C 19.710938 -19.601562 19.75 -20.078125 19.78125 -20.578125 C 19.8125 -21.078125 19.835938 -21.703125 19.859375 -22.453125 C 19.910156 -22.960938 19.96875 -23.3125 20.03125 -23.5 C 20.101562 -23.695312 20.28125 -23.828125 20.5625 -23.890625 C 21.96875 -24.171875 23.398438 -24.453125 24.859375 -24.734375 C 26.328125 -25.023438 27.765625 -25.394531 29.171875 -25.84375 C 29.296875 -25.84375 29.367188 -25.820312 29.390625 -25.78125 C 29.421875 -25.738281 29.4375 -25.679688 29.4375 -25.609375 Z M 27.25 -2.875 "/></g></g><g style="fill:#959085;fill-opacity:1;"><g transform="translate(340.612083, 51.071511)"><path style="stroke:none" d="M 21.71875 -18.84375 C 21.394531 -18.875 21.03125 -18.910156 20.625 -18.953125 C 20.226562 -18.992188 19.804688 -19.015625 19.359375 -19.015625 C 18.679688 -19.015625 17.988281 -18.953125 17.28125 -18.828125 C 16.582031 -18.710938 15.929688 -18.484375 15.328125 -18.140625 C 14.722656 -17.804688 14.203125 -17.34375 13.765625 -16.75 C 13.335938 -16.15625 13.0625 -15.390625 12.9375 -14.453125 C 12.832031 -13.304688 12.742188 -12.363281 12.671875 -11.625 C 12.609375 -10.894531 12.5625 -10.296875 12.53125 -9.828125 C 12.5 -9.359375 12.46875 -8.976562 12.4375 -8.6875 C 12.414062 -8.40625 12.398438 -8.140625 12.390625 -7.890625 C 12.390625 -7.828125 12.375 -7.65625 12.34375 -7.375 C 12.320312 -7.101562 12.285156 -6.78125 12.234375 -6.40625 C 12.191406 -6.039062 12.148438 -5.640625 12.109375 -5.203125 C 12.078125 -4.773438 12.035156 -4.375 11.984375 -4 C 11.941406 -3.632812 11.910156 -3.3125 11.890625 -3.03125 C 11.867188 -2.75 11.859375 -2.582031 11.859375 -2.53125 C 11.859375 -2.40625 11.859375 -2.296875 11.859375 -2.203125 C 11.867188 -2.117188 11.875 -2.039062 11.875 -1.96875 C 11.875 -1.84375 11.816406 -1.738281 11.703125 -1.65625 C 11.585938 -1.570312 11.328125 -1.472656 10.921875 -1.359375 L 4.796875 0.828125 C 4.617188 0.890625 4.390625 0.96875 4.109375 1.0625 C 3.835938 1.15625 3.570312 1.203125 3.3125 1.203125 C 3.09375 1.203125 2.898438 1.144531 2.734375 1.03125 C 2.578125 0.925781 2.5 0.742188 2.5 0.484375 L 4.484375 -22.453125 C 4.535156 -22.960938 4.59375 -23.3125 4.65625 -23.5 C 4.726562 -23.695312 4.90625 -23.828125 5.1875 -23.890625 C 6.59375 -24.171875 8.039062 -24.453125 9.53125 -24.734375 C 11.03125 -25.023438 12.484375 -25.394531 13.890625 -25.84375 C 14.015625 -25.84375 14.085938 -25.820312 14.109375 -25.78125 C 14.128906 -25.738281 14.140625 -25.679688 14.140625 -25.609375 C 14.140625 -25.578125 14.132812 -25.53125 14.125 -25.46875 C 14.125 -25.40625 14.101562 -25.265625 14.0625 -25.046875 C 14.03125 -24.835938 13.976562 -24.507812 13.90625 -24.0625 C 13.832031 -23.625 13.734375 -23.015625 13.609375 -22.234375 C 14.328125 -22.785156 15.113281 -23.289062 15.96875 -23.75 C 16.820312 -24.21875 17.679688 -24.617188 18.546875 -24.953125 C 19.410156 -25.285156 20.242188 -25.546875 21.046875 -25.734375 C 21.847656 -25.929688 22.550781 -26.03125 23.15625 -26.03125 Z M 21.71875 -18.84375 "/></g></g><g style="fill:#959085;fill-opacity:1;"><g transform="translate(361.054923, 51.071511)"><path style="stroke:none" d="M 16.578125 -25.84375 C 18.046875 -25.84375 19.378906 -25.566406 20.578125 -25.015625 C 21.773438 -24.472656 22.800781 -23.765625 23.65625 -22.890625 C 24.507812 -22.015625 25.164062 -21.035156 25.625 -19.953125 C 26.09375 -18.878906 26.328125 -17.800781 26.328125 -16.71875 C 26.328125 -15.757812 26.03125 -14.796875 25.4375 -13.828125 C 24.851562 -12.867188 24.03125 -12.003906 22.96875 -11.234375 C 21.914062 -10.460938 20.648438 -9.835938 19.171875 -9.359375 C 17.691406 -8.878906 16.0625 -8.640625 14.28125 -8.640625 C 13.351562 -8.640625 12.382812 -8.734375 11.375 -8.921875 C 11.4375 -8.253906 11.628906 -7.679688 11.953125 -7.203125 C 12.273438 -6.722656 12.679688 -6.328125 13.171875 -6.015625 C 13.671875 -5.710938 14.234375 -5.488281 14.859375 -5.34375 C 15.484375 -5.195312 16.125 -5.125 16.78125 -5.125 C 17.53125 -5.125 18.242188 -5.1875 18.921875 -5.3125 C 19.609375 -5.445312 20.269531 -5.617188 20.90625 -5.828125 C 21.539062 -6.046875 22.148438 -6.285156 22.734375 -6.546875 C 23.328125 -6.816406 23.882812 -7.082031 24.40625 -7.34375 C 24.539062 -7.375 24.660156 -7.398438 24.765625 -7.421875 C 24.867188 -7.441406 24.960938 -7.453125 25.046875 -7.453125 C 25.046875 -7.453125 25.039062 -7.328125 25.03125 -7.078125 C 25.03125 -6.835938 25.03125 -6.492188 25.03125 -6.046875 C 25.03125 -5.597656 25.023438 -5.054688 25.015625 -4.421875 C 25.003906 -3.785156 24.992188 -3.082031 24.984375 -2.3125 C 25.023438 -2.238281 25.050781 -2.160156 25.0625 -2.078125 C 25.082031 -2.003906 25.09375 -1.945312 25.09375 -1.90625 C 25.09375 -1.71875 24.921875 -1.515625 24.578125 -1.296875 C 24.242188 -1.078125 23.800781 -0.851562 23.25 -0.625 C 22.707031 -0.394531 22.082031 -0.171875 21.375 0.046875 C 20.675781 0.265625 19.960938 0.460938 19.234375 0.640625 C 18.515625 0.816406 17.8125 0.953125 17.125 1.046875 C 16.445312 1.148438 15.859375 1.203125 15.359375 1.203125 C 13.679688 1.203125 12.0625 0.910156 10.5 0.328125 C 8.9375 -0.242188 7.546875 -1.070312 6.328125 -2.15625 C 5.117188 -3.238281 4.148438 -4.550781 3.421875 -6.09375 C 2.703125 -7.632812 2.34375 -9.367188 2.34375 -11.296875 C 2.34375 -13.316406 2.6875 -15.210938 3.375 -16.984375 C 4.070312 -18.753906 5.050781 -20.296875 6.3125 -21.609375 C 7.570312 -22.921875 9.070312 -23.953125 10.8125 -24.703125 C 12.5625 -25.460938 14.484375 -25.84375 16.578125 -25.84375 Z M 16.296875 -19.6875 C 15.671875 -19.6875 15.085938 -19.550781 14.546875 -19.28125 C 14.015625 -19.007812 13.53125 -18.617188 13.09375 -18.109375 C 12.65625 -17.609375 12.273438 -17.007812 11.953125 -16.3125 C 11.628906 -15.613281 11.363281 -14.835938 11.15625 -13.984375 C 12.75 -14.265625 14.066406 -14.554688 15.109375 -14.859375 C 16.160156 -15.171875 17.003906 -15.484375 17.640625 -15.796875 C 18.273438 -16.117188 18.722656 -16.4375 18.984375 -16.75 C 19.242188 -17.070312 19.375 -17.378906 19.375 -17.671875 C 19.375 -17.941406 19.269531 -18.203125 19.0625 -18.453125 C 18.851562 -18.703125 18.59375 -18.914062 18.28125 -19.09375 C 17.976562 -19.28125 17.644531 -19.425781 17.28125 -19.53125 C 16.914062 -19.632812 16.585938 -19.6875 16.296875 -19.6875 Z M 16.296875 -19.6875 "/></g></g></g></svg>